<svg xmlns="http://www.w3.org/2000/svg" width="1500" height="756" viewBox="0 0 1500 756">
<rect width="100%" height="100%" fill="#faf8f4"/>
<text x="750.0" y="42" text-anchor="middle" font-family="Arial, sans-serif" font-size="28" font-weight="700">Unbalanced peak_5x (100 req, seed1): six-arm TTFT breakdown</text>
<text x="750.0" y="728" text-anchor="middle" font-family="Arial, sans-serif" font-size="20">mean E2E TTFT components (ms)</text>
<line x1="260.0" y1="80" x2="260.0" y2="556" stroke="#d9d2c8" stroke-width="1"/>
<text x="260.0" y="584" text-anchor="middle" font-family="Arial, sans-serif" font-size="16" fill="#5f5b55">0</text>
<line x1="438.3" y1="80" x2="438.3" y2="556" stroke="#d9d2c8" stroke-width="1"/>
<text x="438.3" y="584" text-anchor="middle" font-family="Arial, sans-serif" font-size="16" fill="#5f5b55">653</text>
<line x1="616.7" y1="80" x2="616.7" y2="556" stroke="#d9d2c8" stroke-width="1"/>
<text x="616.7" y="584" text-anchor="middle" font-family="Arial, sans-serif" font-size="16" fill="#5f5b55">1306</text>
<line x1="795.0" y1="80" x2="795.0" y2="556" stroke="#d9d2c8" stroke-width="1"/>
<text x="795.0" y="584" text-anchor="middle" font-family="Arial, sans-serif" font-size="16" fill="#5f5b55">1959</text>
<line x1="973.3" y1="80" x2="973.3" y2="556" stroke="#d9d2c8" stroke-width="1"/>
<text x="973.3" y="584" text-anchor="middle" font-family="Arial, sans-serif" font-size="16" fill="#5f5b55">2613</text>
<line x1="1151.7" y1="80" x2="1151.7" y2="556" stroke="#d9d2c8" stroke-width="1"/>
<text x="1151.7" y="584" text-anchor="middle" font-family="Arial, sans-serif" font-size="16" fill="#5f5b55">3266</text>
<line x1="1330.0" y1="80" x2="1330.0" y2="556" stroke="#d9d2c8" stroke-width="1"/>
<text x="1330.0" y="584" text-anchor="middle" font-family="Arial, sans-serif" font-size="16" fill="#5f5b55">3919</text>
<text x="242" y="118" text-anchor="end" font-family="Arial, sans-serif" font-size="21" fill="#2b2926">1: no_redirect</text>
<rect x="260.0" y="90.0" width="656.9" height="42" fill="#c74b3a" stroke="#faf8f4" stroke-width="2"/>
<text x="588.4" y="117" text-anchor="middle" font-family="Arial, sans-serif" font-size="15" font-weight="700" fill="#fffdf8">2405.8</text>
<rect x="916.9" y="90.0" width="135.2" height="42" fill="#e79b37" stroke="#faf8f4" stroke-width="2"/>
<text x="984.5" y="117" text-anchor="middle" font-family="Arial, sans-serif" font-size="15" font-weight="700" fill="#1f1d1a">495.3</text>
<rect x="1052.1" y="90.0" width="0.0" height="42" fill="#865bd6" stroke="#faf8f4" stroke-width="2"/>
<rect x="1052.1" y="90.0" width="0.0" height="42" fill="#e0459b" stroke="#faf8f4" stroke-width="2"/>
<rect x="1052.1" y="90.0" width="99.2" height="42" fill="#31866f" stroke="#faf8f4" stroke-width="2"/>
<text x="1101.7" y="117" text-anchor="middle" font-family="Arial, sans-serif" font-size="15" font-weight="700" fill="#fffdf8">363.3</text>
<rect x="1151.3" y="90.0" width="0.4" height="42" fill="#4f83c2" stroke="#faf8f4" stroke-width="2"/>
<text x="1167.7" y="118" font-family="Arial, sans-serif" font-size="20" font-weight="700" fill="#2b2926">3266 ms</text>
<text x="242" y="194" text-anchor="end" font-family="Arial, sans-serif" font-size="21" fill="#2b2926">2: redirect_no_kv</text>
<rect x="260.0" y="166.0" width="431.6" height="42" fill="#c74b3a" stroke="#faf8f4" stroke-width="2"/>
<text x="475.8" y="193" text-anchor="middle" font-family="Arial, sans-serif" font-size="15" font-weight="700" fill="#fffdf8">1580.6</text>
<rect x="691.6" y="166.0" width="140.8" height="42" fill="#e79b37" stroke="#faf8f4" stroke-width="2"/>
<text x="762.0" y="193" text-anchor="middle" font-family="Arial, sans-serif" font-size="15" font-weight="700" fill="#1f1d1a">515.7</text>
<rect x="832.4" y="166.0" width="0.0" height="42" fill="#865bd6" stroke="#faf8f4" stroke-width="2"/>
<rect x="832.4" y="166.0" width="0.0" height="42" fill="#e0459b" stroke="#faf8f4" stroke-width="2"/>
<rect x="832.4" y="166.0" width="109.2" height="42" fill="#31866f" stroke="#faf8f4" stroke-width="2"/>
<text x="887.0" y="193" text-anchor="middle" font-family="Arial, sans-serif" font-size="15" font-weight="700" fill="#fffdf8">399.9</text>
<rect x="941.6" y="166.0" width="0.4" height="42" fill="#4f83c2" stroke="#faf8f4" stroke-width="2"/>
<text x="958.0" y="194" font-family="Arial, sans-serif" font-size="20" font-weight="700" fill="#2b2926">2498 ms</text>
<text x="242" y="270" text-anchor="end" font-family="Arial, sans-serif" font-size="21" fill="#2b2926">3: redirect_kv_nopp</text>
<rect x="260.0" y="242.0" width="0.2" height="42" fill="#c74b3a" stroke="#faf8f4" stroke-width="2"/>
<rect x="260.2" y="242.0" width="144.7" height="42" fill="#e79b37" stroke="#faf8f4" stroke-width="2"/>
<text x="332.6" y="269" text-anchor="middle" font-family="Arial, sans-serif" font-size="15" font-weight="700" fill="#1f1d1a">530.1</text>
<rect x="405.0" y="242.0" width="16.0" height="42" fill="#865bd6" stroke="#faf8f4" stroke-width="2"/>
<rect x="421.0" y="242.0" width="0.0" height="42" fill="#e0459b" stroke="#faf8f4" stroke-width="2"/>
<rect x="421.0" y="242.0" width="111.2" height="42" fill="#31866f" stroke="#faf8f4" stroke-width="2"/>
<text x="476.6" y="269" text-anchor="middle" font-family="Arial, sans-serif" font-size="15" font-weight="700" fill="#fffdf8">407.1</text>
<rect x="532.1" y="242.0" width="0.4" height="42" fill="#4f83c2" stroke="#faf8f4" stroke-width="2"/>
<text x="548.6" y="270" font-family="Arial, sans-serif" font-size="20" font-weight="700" fill="#2b2926">998 ms</text>
<text x="242" y="346" text-anchor="end" font-family="Arial, sans-serif" font-size="21" fill="#2b2926">4: redirect_kv_pp2</text>
<rect x="260.0" y="318.0" width="0.0" height="42" fill="#c74b3a" stroke="#faf8f4" stroke-width="2"/>
<rect x="260.0" y="318.0" width="438.8" height="42" fill="#e79b37" stroke="#faf8f4" stroke-width="2"/>
<text x="479.4" y="345" text-anchor="middle" font-family="Arial, sans-serif" font-size="15" font-weight="700" fill="#1f1d1a">1607.0</text>
<rect x="698.8" y="318.0" width="1.4" height="42" fill="#865bd6" stroke="#faf8f4" stroke-width="2"/>
<rect x="700.2" y="318.0" width="0.6" height="42" fill="#e0459b" stroke="#faf8f4" stroke-width="2"/>
<rect x="700.7" y="318.0" width="129.3" height="42" fill="#31866f" stroke="#faf8f4" stroke-width="2"/>
<text x="765.4" y="345" text-anchor="middle" font-family="Arial, sans-serif" font-size="15" font-weight="700" fill="#fffdf8">473.6</text>
<rect x="830.0" y="318.0" width="0.4" height="42" fill="#4f83c2" stroke="#faf8f4" stroke-width="2"/>
<text x="846.4" y="346" font-family="Arial, sans-serif" font-size="20" font-weight="700" fill="#2b2926">2089 ms</text>
<text x="242" y="422" text-anchor="end" font-family="Arial, sans-serif" font-size="21" fill="#2b2926">5: redirect_nokv_pp2</text>
<rect x="260.0" y="394.0" width="0.1" height="42" fill="#c74b3a" stroke="#faf8f4" stroke-width="2"/>
<rect x="260.1" y="394.0" width="439.2" height="42" fill="#e79b37" stroke="#faf8f4" stroke-width="2"/>
<text x="479.6" y="421" text-anchor="middle" font-family="Arial, sans-serif" font-size="15" font-weight="700" fill="#1f1d1a">1608.5</text>
<rect x="699.2" y="394.0" width="0.0" height="42" fill="#865bd6" stroke="#faf8f4" stroke-width="2"/>
<rect x="699.2" y="394.0" width="0.6" height="42" fill="#e0459b" stroke="#faf8f4" stroke-width="2"/>
<rect x="699.8" y="394.0" width="130.2" height="42" fill="#31866f" stroke="#faf8f4" stroke-width="2"/>
<text x="764.9" y="421" text-anchor="middle" font-family="Arial, sans-serif" font-size="15" font-weight="700" fill="#fffdf8">477.0</text>
<rect x="830.0" y="394.0" width="0.4" height="42" fill="#4f83c2" stroke="#faf8f4" stroke-width="2"/>
<text x="846.4" y="422" font-family="Arial, sans-serif" font-size="20" font-weight="700" fill="#2b2926">2089 ms</text>
<text x="242" y="498" text-anchor="end" font-family="Arial, sans-serif" font-size="21" fill="#2b2926">6: redirect_kv_pp2_c</text>
<rect x="260.0" y="470.0" width="0.0" height="42" fill="#c74b3a" stroke="#faf8f4" stroke-width="2"/>
<rect x="260.0" y="470.0" width="438.8" height="42" fill="#e79b37" stroke="#faf8f4" stroke-width="2"/>
<text x="479.4" y="497" text-anchor="middle" font-family="Arial, sans-serif" font-size="15" font-weight="700" fill="#1f1d1a">1607.0</text>
<rect x="698.8" y="470.0" width="1.4" height="42" fill="#865bd6" stroke="#faf8f4" stroke-width="2"/>
<rect x="700.2" y="470.0" width="0.6" height="42" fill="#e0459b" stroke="#faf8f4" stroke-width="2"/>
<rect x="700.7" y="470.0" width="129.3" height="42" fill="#31866f" stroke="#faf8f4" stroke-width="2"/>
<text x="765.4" y="497" text-anchor="middle" font-family="Arial, sans-serif" font-size="15" font-weight="700" fill="#fffdf8">473.6</text>
<rect x="830.0" y="470.0" width="0.4" height="42" fill="#4f83c2" stroke="#faf8f4" stroke-width="2"/>
<text x="846.4" y="498" font-family="Arial, sans-serif" font-size="20" font-weight="700" fill="#2b2926">2089 ms</text>
<rect x="260" y="594" width="22" height="22" fill="#c74b3a" rx="4"/>
<text x="294" y="611" font-family="Arial, sans-serif" font-size="18" fill="#2b2926">Router queue</text>
<rect x="620" y="594" width="22" height="22" fill="#e79b37" rx="4"/>
<text x="654" y="611" font-family="Arial, sans-serif" font-size="18" fill="#2b2926">Scheduler queue</text>
<rect x="980" y="594" width="22" height="22" fill="#865bd6" rx="4"/>
<text x="1014" y="611" font-family="Arial, sans-serif" font-size="18" fill="#2b2926">KV transfer</text>
<rect x="260" y="628" width="22" height="22" fill="#e0459b" rx="4"/>
<text x="294" y="645" font-family="Arial, sans-serif" font-size="18" fill="#2b2926">PP transfer (est.)</text>
<rect x="620" y="628" width="22" height="22" fill="#31866f" rx="4"/>
<text x="654" y="645" font-family="Arial, sans-serif" font-size="18" fill="#2b2926">Compute / prefill</text>
<rect x="980" y="628" width="22" height="22" fill="#4f83c2" rx="4"/>
<text x="1014" y="645" font-family="Arial, sans-serif" font-size="18" fill="#2b2926">RTT / other comm</text>
</svg>