<svg xmlns="http://www.w3.org/2000/svg" width="1320" height="840" viewBox="0 0 1320 840">
<rect width="100%" height="100%" fill="#faf8f4"/>
<text x="660.0" y="42" text-anchor="middle" font-family="Arial, sans-serif" font-size="28" font-weight="700">Capacity-matched hotspot: TTFT CDF</text>
<text x="660.0" y="814" text-anchor="middle" font-family="Arial, sans-serif" font-size="20">TTFT (ms)</text>
<text x="28" y="372.5" transform="rotate(-90 28 372.5)" text-anchor="middle" font-family="Arial, sans-serif" font-size="20">CDF</text>
<line x1="105" y1="660.0" x2="1270" y2="660.0" stroke="#d9d2c8" stroke-width="1"/>
<text x="89" y="666.0" text-anchor="end" font-family="Arial, sans-serif" font-size="16" fill="#5f5b55">0.0</text>
<line x1="105" y1="545.0" x2="1270" y2="545.0" stroke="#d9d2c8" stroke-width="1"/>
<text x="89" y="551.0" text-anchor="end" font-family="Arial, sans-serif" font-size="16" fill="#5f5b55">0.2</text>
<line x1="105" y1="430.0" x2="1270" y2="430.0" stroke="#d9d2c8" stroke-width="1"/>
<text x="89" y="436.0" text-anchor="end" font-family="Arial, sans-serif" font-size="16" fill="#5f5b55">0.4</text>
<line x1="105" y1="315.0" x2="1270" y2="315.0" stroke="#d9d2c8" stroke-width="1"/>
<text x="89" y="321.0" text-anchor="end" font-family="Arial, sans-serif" font-size="16" fill="#5f5b55">0.6</text>
<line x1="105" y1="200.0" x2="1270" y2="200.0" stroke="#d9d2c8" stroke-width="1"/>
<text x="89" y="206.0" text-anchor="end" font-family="Arial, sans-serif" font-size="16" fill="#5f5b55">0.8</text>
<line x1="105" y1="85.0" x2="1270" y2="85.0" stroke="#d9d2c8" stroke-width="1"/>
<text x="89" y="91.0" text-anchor="end" font-family="Arial, sans-serif" font-size="16" fill="#5f5b55">1.0</text>
<line x1="105.0" y1="85" x2="105.0" y2="660" stroke="#d9d2c8" stroke-width="1"/>
<text x="105.0" y="694" text-anchor="middle" font-family="Arial, sans-serif" font-size="16" fill="#5f5b55">0</text>
<line x1="299.2" y1="85" x2="299.2" y2="660" stroke="#d9d2c8" stroke-width="1"/>
<text x="299.2" y="694" text-anchor="middle" font-family="Arial, sans-serif" font-size="16" fill="#5f5b55">7901</text>
<line x1="493.3" y1="85" x2="493.3" y2="660" stroke="#d9d2c8" stroke-width="1"/>
<text x="493.3" y="694" text-anchor="middle" font-family="Arial, sans-serif" font-size="16" fill="#5f5b55">15801</text>
<line x1="687.5" y1="85" x2="687.5" y2="660" stroke="#d9d2c8" stroke-width="1"/>
<text x="687.5" y="694" text-anchor="middle" font-family="Arial, sans-serif" font-size="16" fill="#5f5b55">23702</text>
<line x1="881.7" y1="85" x2="881.7" y2="660" stroke="#d9d2c8" stroke-width="1"/>
<text x="881.7" y="694" text-anchor="middle" font-family="Arial, sans-serif" font-size="16" fill="#5f5b55">31603</text>
<line x1="1075.8" y1="85" x2="1075.8" y2="660" stroke="#d9d2c8" stroke-width="1"/>
<text x="1075.8" y="694" text-anchor="middle" font-family="Arial, sans-serif" font-size="16" fill="#5f5b55">39503</text>
<line x1="1270.0" y1="85" x2="1270.0" y2="660" stroke="#d9d2c8" stroke-width="1"/>
<text x="1270.0" y="694" text-anchor="middle" font-family="Arial, sans-serif" font-size="16" fill="#5f5b55">47404</text>
<polyline fill="none" stroke="#2d6a4f" stroke-width="4" stroke-linejoin="round" stroke-linecap="round" points="109.2,658.1 109.2,656.2 109.3,654.2 109.5,652.3 109.5,650.4 109.5,648.5 109.6,646.6 109.8,644.7 109.8,642.8 109.8,640.8 109.8,638.9 109.8,637.0 109.9,635.1 110.0,633.2 110.0,631.2 110.2,629.3 110.2,627.4 110.3,625.5 110.3,623.6 110.6,621.7 110.6,619.8 110.6,617.8 110.7,615.9 110.7,614.0 110.9,612.1 111.0,610.2 111.0,608.2 111.0,606.3 111.0,604.4 111.2,602.5 111.2,600.6 111.3,598.7 111.3,596.8 111.3,594.8 111.5,592.9 111.5,591.0 111.6,589.1 111.8,587.2 111.8,585.2 112.3,583.3 112.8,581.4 113.6,579.5 113.6,577.6 113.8,575.7 113.9,573.8 114.0,571.8 114.1,569.9 114.2,568.0 114.3,566.1 116.1,564.2 117.4,562.2 117.6,560.3 117.7,558.4 117.8,556.5 117.8,554.6 117.9,552.7 118.0,550.8 118.1,548.8 118.2,546.9 118.2,545.0 118.3,543.1 118.4,541.2 118.5,539.2 118.7,537.3 118.7,535.4 118.8,533.5 119.0,531.6 119.1,529.7 119.1,527.8 119.7,525.8 120.0,523.9 120.1,522.0 120.1,520.1 120.1,518.2 120.1,516.2 120.2,514.3 120.3,512.4 120.4,510.5 120.5,508.6 120.7,506.7 120.7,504.8 120.7,502.8 120.9,500.9 120.9,499.0 121.0,497.1 121.2,495.2 121.2,493.2 121.5,491.3 121.5,489.4 121.8,487.5 122.5,485.6 122.6,483.7 122.6,481.8 122.8,479.8 122.9,477.9 122.9,476.0 123.0,474.1 123.2,472.2 123.2,470.2 123.3,468.3 123.4,466.4 123.7,464.5 123.8,462.6 123.8,460.7 123.9,458.8 124.0,456.8 124.1,454.9 124.3,453.0 124.4,451.1 124.5,449.2 124.6,447.2 124.9,445.3 125.1,443.4 125.4,441.5 125.5,439.6 125.7,437.7 125.9,435.8 125.9,433.8 126.0,431.9 126.2,430.0 126.2,428.1 126.3,426.2 126.6,424.2 126.7,422.3 126.8,420.4 126.9,418.5 126.9,416.6 126.9,414.7 127.0,412.8 127.1,410.8 127.2,408.9 127.3,407.0 127.8,405.1 128.2,403.2 128.3,401.2 128.6,399.3 129.1,397.4 129.2,395.5 129.5,393.6 129.9,391.7 130.0,389.8 130.3,387.8 130.3,385.9 130.4,384.0 130.6,382.1 130.8,380.2 130.8,378.2 131.0,376.3 131.9,374.4 132.0,372.5 132.7,370.6 133.1,368.7 135.0,366.8 135.9,364.8 136.3,362.9 137.0,361.0 137.2,359.1 138.8,357.2 141.3,355.2 144.4,353.3 145.9,351.4 147.3,349.5 149.4,347.6 154.7,345.7 158.6,343.8 160.1,341.8 163.8,339.9 166.4,338.0 169.3,336.1 172.3,334.2 175.1,332.2 177.1,330.3 180.6,328.4 183.0,326.5 186.2,324.6 186.5,322.7 188.5,320.8 190.5,318.8 192.3,316.9 192.8,315.0 194.8,313.1 199.3,311.2 202.7,309.2 207.3,307.3 235.0,305.4 252.3,303.5 256.3,301.6 263.9,299.7 266.8,297.8 290.6,295.8 294.9,293.9 300.3,292.0 300.7,290.1 307.0,288.2 318.0,286.2 320.8,284.3 324.9,282.4 332.3,280.5 349.3,278.6 349.4,276.7 355.3,274.8 366.9,272.8 377.8,270.9 382.5,269.0 385.3,267.1 392.6,265.2 396.9,263.3 407.7,261.3 413.4,259.4 417.1,257.5 426.8,255.6 432.2,253.7 463.3,251.8 463.9,249.8 480.7,247.9 484.5,246.0 488.6,244.1 507.8,242.2 512.9,240.2 524.1,238.3 524.5,236.4 529.6,234.5 540.2,232.6 542.7,230.7 548.9,228.8 552.6,226.8 554.6,224.9 557.9,223.0 563.6,221.1 567.8,219.2 572.7,217.2 585.2,215.3 588.4,213.4 600.7,211.5 601.2,209.6 605.9,207.7 609.1,205.8 615.4,203.8 638.8,201.9 639.2,200.0 655.1,198.1 665.2,196.2 669.7,194.2 686.4,192.3 693.4,190.4 694.8,188.5 718.3,186.6 740.0,184.7 744.2,182.8 747.5,180.8 750.5,178.9 761.9,177.0 766.2,175.1 780.1,173.2 796.2,171.2 798.6,169.3 807.3,167.4 808.0,165.5 831.5,163.6 834.5,161.7 835.8,159.8 843.1,157.8 866.2,155.9 872.6,154.0 875.1,152.1 883.8,150.2 896.7,148.2 902.8,146.3 908.4,144.4 917.2,142.5 919.1,140.6 928.9,138.7 949.0,136.8 955.1,134.8 955.5,132.9 965.8,131.0 985.4,129.1 997.5,127.2 1002.6,125.2 1009.3,123.3 1023.5,121.4 1027.0,119.5 1030.8,117.6 1054.2,115.7 1061.3,113.8 1065.6,111.8 1065.9,109.9 1071.0,108.0 1078.8,106.1 1082.1,104.2 1093.4,102.2 1099.3,100.3 1104.6,98.4 1109.1,96.5 1119.3,94.6 1124.8,92.7 1165.0,90.8 1174.9,88.8 1189.8,86.9 1236.1,85.0"/>
<polyline fill="none" stroke="#2d6a4f" stroke-width="4" stroke-linejoin="round" stroke-linecap="round" points="109.2,658.1 109.2,656.2 109.3,654.2 109.5,652.3 109.5,650.4 109.5,648.5 109.6,646.6 109.8,644.7 109.8,642.8 109.8,640.8 109.8,638.9 109.8,637.0 110.0,635.1 110.0,633.2 110.2,631.2 110.3,629.3 110.3,627.4 110.6,625.5 110.7,623.6 110.9,621.7 111.0,619.8 111.0,617.8 111.0,615.9 111.0,614.0 111.3,612.1 111.5,610.2 111.5,608.2 111.8,606.3 114.0,604.4 117.2,602.5 117.4,600.6 117.4,598.7 117.7,596.8 117.8,594.8 117.9,592.9 118.4,591.0 118.8,589.1 119.1,587.2 119.5,585.2 120.0,583.3 120.1,581.4 120.2,579.5 120.3,577.6 121.2,575.7 121.2,573.8 123.0,571.8 123.0,569.9 123.2,568.0 124.3,566.1 124.6,564.2 124.7,562.2 124.9,560.3 125.8,558.4 126.0,556.5 126.9,554.6 128.1,552.7 129.0,550.8 129.1,548.8 129.3,546.9 129.5,545.0 130.4,543.1 130.6,541.2 131.1,539.2 132.7,537.3 133.1,535.4 134.4,533.5 134.7,531.6 136.0,529.7 136.3,527.8 136.6,525.8 137.5,523.9 137.6,522.0 138.0,520.1 138.2,518.2 138.8,516.2 138.9,514.3 139.3,512.4 140.7,510.5 141.7,508.6 143.2,506.7 144.0,504.8 144.3,502.8 144.4,500.9 144.5,499.0 145.5,497.1 145.5,495.2 145.9,493.2 145.9,491.3 146.0,489.4 146.1,487.5 146.2,485.6 148.0,483.7 148.3,481.8 148.4,479.8 149.4,477.9 150.1,476.0 150.4,474.1 151.5,472.2 151.8,470.2 152.0,468.3 152.7,466.4 152.9,464.5 153.2,462.6 153.6,460.7 153.7,458.8 154.1,456.8 154.7,454.9 155.3,453.0 155.4,451.1 156.8,449.2 157.4,447.2 157.6,445.3 157.9,443.4 158.6,441.5 159.7,439.6 159.7,437.7 160.1,435.8 160.3,433.8 160.4,431.9 160.8,430.0 161.4,428.1 162.3,426.2 162.4,424.2 163.8,422.3 163.9,420.4 164.2,418.5 164.5,416.6 165.3,414.7 166.0,412.8 166.4,410.8 166.5,408.9 166.6,407.0 166.7,405.1 169.3,403.2 169.4,401.2 169.7,399.3 169.8,397.4 169.8,395.5 170.5,393.6 171.9,391.7 172.3,389.8 172.3,387.8 173.8,385.9 174.3,384.0 174.3,382.1 175.1,380.2 176.3,378.2 176.9,376.3 177.1,374.4 178.3,372.5 178.6,370.6 178.6,368.7 179.7,366.8 179.9,364.8 180.6,362.9 181.2,361.0 182.1,359.1 182.5,357.2 182.6,355.2 183.0,353.3 183.3,351.4 183.6,349.5 184.3,347.6 185.5,345.7 186.2,343.8 186.2,341.8 186.4,339.9 186.5,338.0 186.8,336.1 187.3,334.2 187.4,332.2 188.5,330.3 188.6,328.4 188.7,326.5 190.3,324.6 190.5,322.7 191.6,320.8 191.9,318.8 192.3,316.9 192.8,315.0 192.9,313.1 193.0,311.2 193.4,309.2 193.5,307.3 193.7,305.4 194.7,303.5 194.8,301.6 195.8,299.7 195.8,297.8 198.8,295.8 199.3,293.9 199.5,292.0 199.8,290.1 199.8,288.2 199.8,286.2 199.9,284.3 201.2,282.4 202.0,280.5 202.2,278.6 202.7,276.7 202.7,274.8 203.9,272.8 204.1,270.9 204.4,269.0 204.6,267.1 205.4,265.2 205.6,263.3 206.8,261.3 207.2,259.4 208.7,257.5 209.5,255.6 209.8,253.7 210.6,251.8 211.4,249.8 211.6,247.9 213.0,246.0 214.2,244.1 217.0,242.2 217.5,240.2 217.6,238.3 219.0,236.4 221.4,234.5 224.2,232.6 224.3,230.7 226.3,228.8 229.3,226.8 229.4,224.9 230.3,223.0 231.1,221.1 235.9,219.2 236.7,217.2 237.0,215.3 237.2,213.4 240.9,211.5 242.1,209.6 242.2,207.7 243.0,205.8 244.7,203.8 245.2,201.9 247.2,200.0 255.1,198.1 255.7,196.2 257.0,194.2 257.5,192.3 261.3,190.4 261.9,188.5 263.9,186.6 266.2,184.7 269.2,182.8 273.7,180.8 276.5,178.9 278.1,177.0 280.6,175.1 281.5,173.2 283.6,171.2 285.9,169.3 289.8,167.4 291.4,165.5 293.0,163.6 293.9,161.7 297.0,159.8 299.0,157.8 300.6,155.9 300.8,154.0 302.9,152.1 303.2,150.2 304.4,148.2 304.5,146.3 308.1,144.4 313.5,142.5 314.3,140.6 314.6,138.7 316.8,136.8 316.8,134.8 317.5,132.9 317.7,131.0 318.5,129.1 318.9,127.2 325.1,125.2 326.5,123.3 328.3,121.4 329.6,119.5 334.0,117.6 335.8,115.7 336.2,113.8 337.3,111.8 337.5,109.9 338.7,108.0 338.8,106.1 342.5,104.2 343.3,102.2 351.7,100.3 357.8,98.4 360.3,96.5 362.0,94.6 362.9,92.7 363.3,90.8 365.0,88.8 370.7,86.9 372.4,85.0"/>
<polyline fill="none" stroke="#2d6a4f" stroke-width="4" stroke-linejoin="round" stroke-linecap="round" points="109.2,658.1 109.2,656.2 109.3,654.2 109.5,652.3 109.5,650.4 109.5,648.5 109.6,646.6 109.8,644.7 109.8,642.8 109.8,640.8 109.8,638.9 109.8,637.0 109.9,635.1 110.0,633.2 110.0,631.2 110.2,629.3 110.3,627.4 110.3,625.5 110.6,623.6 110.6,621.7 110.6,619.8 110.7,617.8 110.9,615.9 111.0,614.0 111.0,612.1 111.0,610.2 111.0,608.2 111.3,606.3 111.5,604.4 111.5,602.5 111.8,600.6 114.0,598.7 114.0,596.8 117.0,594.8 117.4,592.9 117.6,591.0 117.7,589.1 117.8,587.2 117.9,585.2 118.2,583.3 118.2,581.4 118.4,579.5 118.4,577.6 119.0,575.7 119.1,573.8 119.5,571.8 119.9,569.9 120.0,568.0 120.1,566.1 120.2,564.2 120.3,562.2 120.4,560.3 120.7,558.4 120.8,556.5 121.2,554.6 121.2,552.7 121.2,550.8 121.3,548.8 122.0,546.9 122.2,545.0 122.9,543.1 123.0,541.2 123.8,539.2 124.9,537.3 126.8,535.4 126.9,533.5 127.2,531.6 128.6,529.7 129.4,527.8 129.5,525.8 130.1,523.9 130.2,522.0 130.4,520.1 130.5,518.2 130.7,516.2 130.9,514.3 131.0,512.4 131.1,510.5 131.4,508.6 132.2,506.7 132.5,504.8 133.1,502.8 133.1,500.9 133.3,499.0 133.6,497.1 133.9,495.2 134.2,493.2 134.7,491.3 134.8,489.4 135.2,487.5 135.4,485.6 135.9,483.7 136.0,481.8 136.2,479.8 136.3,477.9 136.3,476.0 136.3,474.1 136.7,472.2 136.8,470.2 137.7,468.3 137.9,466.4 138.1,464.5 138.3,462.6 138.7,460.7 138.8,458.8 138.9,456.8 139.2,454.9 139.4,453.0 139.4,451.1 139.7,449.2 139.7,447.2 139.7,445.3 141.1,443.4 141.2,441.5 141.2,439.6 142.9,437.7 143.2,435.8 143.2,433.8 143.2,431.9 144.5,430.0 144.6,428.1 144.6,426.2 144.9,424.2 145.1,422.3 145.1,420.4 145.4,418.5 145.9,416.6 146.2,414.7 147.2,412.8 147.4,410.8 147.5,408.9 148.0,407.0 148.5,405.1 148.8,403.2 149.4,401.2 149.5,399.3 149.6,397.4 150.0,395.5 150.1,393.6 150.4,391.7 151.0,389.8 151.5,387.8 151.7,385.9 151.9,384.0 152.0,382.1 152.0,380.2 152.3,378.2 153.8,376.3 153.9,374.4 154.7,372.5 155.4,370.6 155.4,368.7 156.0,366.8 156.6,364.8 156.8,362.9 157.4,361.0 157.7,359.1 157.8,357.2 158.5,355.2 158.6,353.3 159.6,351.4 159.7,349.5 159.9,347.6 160.0,345.7 160.1,343.8 160.4,341.8 160.8,339.9 161.0,338.0 162.5,336.1 162.7,334.2 163.3,332.2 163.8,330.3 163.8,328.4 164.0,326.5 165.4,324.6 166.4,322.7 166.6,320.8 166.7,318.8 167.3,316.9 167.5,315.0 167.6,313.1 167.7,311.2 167.9,309.2 167.9,307.3 168.1,305.4 168.1,303.5 168.8,301.6 169.3,299.7 169.4,297.8 169.4,295.8 169.5,293.9 170.3,292.0 170.5,290.1 170.7,288.2 170.9,286.2 171.8,284.3 172.3,282.4 172.3,280.5 172.4,278.6 172.5,276.7 173.1,274.8 173.9,272.8 174.2,270.9 174.4,269.0 175.0,267.1 175.1,265.2 175.6,263.3 176.8,261.3 176.9,259.4 177.1,257.5 177.6,255.6 178.0,253.7 179.9,251.8 180.1,249.8 180.6,247.9 181.6,246.0 183.0,244.1 184.0,242.2 186.2,240.2 186.5,238.3 187.3,236.4 188.5,234.5 190.5,232.6 192.1,230.7 192.3,228.8 192.8,226.8 193.6,224.9 194.5,223.0 194.8,221.1 198.7,219.2 199.3,217.2 200.1,215.3 201.0,213.4 202.7,211.5 204.3,209.6 204.4,207.7 206.1,205.8 214.0,203.8 214.4,201.9 214.5,200.0 215.6,198.1 217.7,196.2 218.6,194.2 218.7,192.3 219.7,190.4 220.9,188.5 223.6,186.6 226.1,184.7 226.4,182.8 226.7,180.8 233.1,178.9 235.0,177.0 236.9,175.1 244.8,173.2 245.6,171.2 246.4,169.3 246.8,167.4 247.0,165.5 250.7,163.6 251.3,161.7 251.7,159.8 251.7,157.8 253.6,155.9 254.0,154.0 256.4,152.1 256.8,150.2 257.3,148.2 258.0,146.3 258.3,144.4 258.5,142.5 259.3,140.6 259.3,138.7 259.7,136.8 262.2,134.8 263.7,132.9 264.4,131.0 267.4,129.1 268.0,127.2 268.8,125.2 271.8,123.3 272.2,121.4 272.6,119.5 273.3,117.6 274.3,115.7 274.4,113.8 276.6,111.8 277.1,109.9 277.8,108.0 278.9,106.1 278.9,104.2 279.0,102.2 279.6,100.3 279.8,98.4 284.2,96.5 292.0,94.6 297.5,92.7 304.1,90.8 304.6,88.8 304.9,86.9 307.0,85.0"/>
<polyline fill="none" stroke="#2d6a4f" stroke-width="4" stroke-linejoin="round" stroke-linecap="round" points="109.2,658.1 109.5,656.2 109.6,654.2 109.7,652.3 109.8,650.4 109.8,648.5 109.9,646.6 110.3,644.7 110.3,642.8 110.3,640.8 110.6,638.9 110.6,637.0 110.7,635.1 110.9,633.2 111.0,631.2 111.0,629.3 111.0,627.4 111.1,625.5 111.1,623.6 111.2,621.7 111.2,619.8 111.4,617.8 111.5,615.9 111.5,614.0 111.7,612.1 112.2,610.2 112.2,608.2 112.5,606.3 112.6,604.4 112.8,602.5 113.0,600.6 113.1,598.7 113.1,596.8 113.2,594.8 113.3,592.9 113.3,591.0 113.4,589.1 113.5,587.2 113.9,585.2 114.1,583.3 114.1,581.4 114.1,579.5 114.2,577.6 114.6,575.7 114.6,573.8 114.6,571.8 115.0,569.9 115.0,568.0 115.4,566.1 115.4,564.2 115.5,562.2 115.6,560.3 115.8,558.4 115.9,556.5 115.9,554.6 116.1,552.7 116.6,550.8 116.8,548.8 116.9,546.9 117.2,545.0 117.2,543.1 117.4,541.2 117.7,539.2 117.8,537.3 118.7,535.4 119.0,533.5 120.2,531.6 120.4,529.7 120.8,527.8 121.5,525.8 121.5,523.9 121.6,522.0 121.7,520.1 122.2,518.2 122.2,516.2 122.2,514.3 122.3,512.4 122.7,510.5 122.8,508.6 122.8,506.7 122.9,504.8 123.1,502.8 123.3,500.9 123.6,499.0 123.6,497.1 123.7,495.2 124.2,493.2 124.4,491.3 124.8,489.4 124.9,487.5 125.1,485.6 125.4,483.7 125.8,481.8 126.1,479.8 126.5,477.9 126.6,476.0 127.2,474.1 127.2,472.2 127.4,470.2 127.7,468.3 128.3,466.4 128.4,464.5 128.8,462.6 128.8,460.7 129.0,458.8 129.2,456.8 129.3,454.9 130.5,453.0 130.9,451.1 131.1,449.2 131.2,447.2 131.8,445.3 133.3,443.4 133.5,441.5 133.5,439.6 133.5,437.7 133.6,435.8 133.8,433.8 134.1,431.9 135.2,430.0 135.4,428.1 136.5,426.2 136.7,424.2 137.2,422.3 137.2,420.4 137.6,418.5 138.4,416.6 138.8,414.7 138.8,412.8 139.2,410.8 139.2,408.9 139.6,407.0 139.8,405.1 140.0,403.2 140.5,401.2 140.9,399.3 141.0,397.4 141.5,395.5 141.5,393.6 141.6,391.7 141.7,389.8 141.8,387.8 142.2,385.9 142.3,384.0 142.4,382.1 142.5,380.2 142.8,378.2 143.1,376.3 143.5,374.4 144.3,372.5 144.8,370.6 144.9,368.7 145.1,366.8 145.1,364.8 145.2,362.9 145.5,361.0 145.9,359.1 146.1,357.2 146.3,355.2 146.8,353.3 146.9,351.4 146.9,349.5 147.7,347.6 147.8,345.7 148.0,343.8 148.3,341.8 148.8,339.9 148.9,338.0 149.4,336.1 149.4,334.2 149.5,332.2 149.7,330.3 149.8,328.4 150.0,326.5 150.3,324.6 150.7,322.7 150.7,320.8 151.6,318.8 151.7,316.9 152.0,315.0 152.2,313.1 152.4,311.2 152.4,309.2 152.7,307.3 153.5,305.4 153.8,303.5 154.0,301.6 154.1,299.7 154.2,297.8 155.4,295.8 155.4,293.9 155.7,292.0 155.9,290.1 155.9,288.2 156.2,286.2 156.5,284.3 157.5,282.4 158.0,280.5 158.6,278.6 158.8,276.7 158.8,274.8 158.8,272.8 159.7,270.9 160.0,269.0 160.2,267.1 160.3,265.2 160.6,263.3 161.2,261.3 161.5,259.4 161.7,257.5 161.9,255.6 162.0,253.7 162.2,251.8 162.4,249.8 162.9,247.9 163.4,246.0 163.5,244.1 163.7,242.2 164.1,240.2 164.9,238.3 165.0,236.4 165.4,234.5 165.8,232.6 165.9,230.7 166.0,228.8 166.7,226.8 167.1,224.9 167.4,223.0 167.5,221.1 167.5,219.2 168.3,217.2 168.3,215.3 168.7,213.4 169.6,211.5 170.1,209.6 170.3,207.7 170.7,205.8 170.8,203.8 170.8,201.9 170.9,200.0 171.0,198.1 171.1,196.2 171.3,194.2 171.9,192.3 172.6,190.4 173.0,188.5 173.3,186.6 173.8,184.7 174.4,182.8 174.7,180.8 174.8,178.9 175.2,177.0 175.3,175.1 175.3,173.2 175.6,171.2 175.8,169.3 176.0,167.4 176.1,165.5 176.1,163.6 176.3,161.7 176.7,159.8 177.2,157.8 178.2,155.9 178.3,154.0 178.6,152.1 179.2,150.2 179.4,148.2 179.6,146.3 180.9,144.4 180.9,142.5 182.4,140.6 182.6,138.7 183.0,136.8 183.4,134.8 184.2,132.9 184.8,131.0 184.9,129.1 185.8,127.2 186.7,125.2 186.9,123.3 187.5,121.4 188.7,119.5 190.7,117.6 192.2,115.7 194.9,113.8 195.7,111.8 199.5,109.9 200.2,108.0 203.6,106.1 204.3,104.2 208.9,102.2 210.9,100.3 213.3,98.4 215.0,96.5 215.7,94.6 216.1,92.7 216.4,90.8 218.9,88.8 220.0,86.9 220.8,85.0"/>
<polyline fill="none" stroke="#2d6a4f" stroke-width="4" stroke-linejoin="round" stroke-linecap="round" points="109.2,658.1 109.5,656.2 109.6,654.2 109.7,652.3 109.8,650.4 109.8,648.5 109.9,646.6 110.3,644.7 110.3,642.8 110.3,640.8 110.6,638.9 110.6,637.0 110.7,635.1 110.9,633.2 111.0,631.2 111.0,629.3 111.0,627.4 111.1,625.5 111.1,623.6 111.2,621.7 111.2,619.8 111.4,617.8 111.5,615.9 111.5,614.0 111.7,612.1 112.1,610.2 112.2,608.2 112.2,606.3 112.5,604.4 112.6,602.5 112.8,600.6 113.0,598.7 113.1,596.8 113.1,594.8 113.2,592.9 113.2,591.0 113.3,589.1 113.3,587.2 113.4,585.2 113.5,583.3 113.5,581.4 113.6,579.5 113.9,577.6 114.0,575.7 114.1,573.8 114.1,571.8 114.1,569.9 114.2,568.0 114.6,566.1 114.6,564.2 114.6,562.2 114.7,560.3 114.9,558.4 115.0,556.5 115.4,554.6 115.5,552.7 115.6,550.8 115.6,548.8 115.8,546.9 115.8,545.0 115.8,543.1 115.8,541.2 115.8,539.2 115.9,537.3 116.1,535.4 116.4,533.5 116.5,531.6 116.6,529.7 116.6,527.8 117.2,525.8 117.3,523.9 117.4,522.0 117.7,520.1 118.1,518.2 118.2,516.2 118.4,514.3 118.5,512.4 118.5,510.5 118.7,508.6 118.8,506.7 119.2,504.8 119.3,502.8 120.4,500.9 120.5,499.0 121.2,497.1 121.3,495.2 121.4,493.2 121.5,491.3 121.5,489.4 121.6,487.5 121.8,485.6 122.6,483.7 122.7,481.8 122.8,479.8 123.1,477.9 123.7,476.0 124.0,474.1 124.1,472.2 124.2,470.2 124.2,468.3 124.3,466.4 124.4,464.5 124.8,462.6 125.1,460.7 125.4,458.8 125.7,456.8 125.7,454.9 126.0,453.0 126.2,451.1 126.3,449.2 126.3,447.2 126.5,445.3 127.0,443.4 127.2,441.5 127.7,439.6 127.9,437.7 128.0,435.8 128.2,433.8 128.3,431.9 128.5,430.0 128.5,428.1 128.6,426.2 128.7,424.2 129.0,422.3 129.1,420.4 129.2,418.5 129.2,416.6 129.5,414.7 129.8,412.8 130.1,410.8 130.6,408.9 131.1,407.0 131.3,405.1 131.4,403.2 131.7,401.2 131.8,399.3 132.0,397.4 132.0,395.5 132.5,393.6 132.8,391.7 133.1,389.8 133.2,387.8 133.2,385.9 133.3,384.0 133.4,382.1 133.5,380.2 133.5,378.2 133.7,376.3 133.7,374.4 133.7,372.5 133.8,370.6 133.8,368.7 134.1,366.8 134.1,364.8 134.2,362.9 134.7,361.0 134.7,359.1 134.8,357.2 134.9,355.2 135.0,353.3 135.1,351.4 136.0,349.5 136.2,347.6 136.4,345.7 137.0,343.8 137.1,341.8 137.4,339.9 137.6,338.0 137.6,336.1 137.7,334.2 138.1,332.2 138.5,330.3 138.9,328.4 139.4,326.5 139.5,324.6 140.1,322.7 140.3,320.8 140.8,318.8 140.9,316.9 141.0,315.0 141.0,313.1 141.1,311.2 141.3,309.2 141.3,307.3 141.3,305.4 141.4,303.5 141.5,301.6 141.6,299.7 141.9,297.8 142.3,295.8 142.4,293.9 142.8,292.0 142.8,290.1 143.7,288.2 143.9,286.2 144.0,284.3 144.3,282.4 144.6,280.5 144.7,278.6 144.7,276.7 144.9,274.8 144.9,272.8 145.1,270.9 145.3,269.0 145.9,267.1 146.2,265.2 146.3,263.3 146.4,261.3 146.5,259.4 146.7,257.5 146.8,255.6 147.0,253.7 147.6,251.8 147.7,249.8 148.1,247.9 148.2,246.0 148.2,244.1 148.4,242.2 148.8,240.2 149.5,238.3 149.7,236.4 149.9,234.5 150.1,232.6 150.6,230.7 150.6,228.8 151.3,226.8 151.3,224.9 151.3,223.0 151.4,221.1 151.7,219.2 152.1,217.2 152.2,215.3 152.3,213.4 152.6,211.5 152.7,209.6 152.9,207.7 153.0,205.8 153.1,203.8 153.1,201.9 153.5,200.0 153.5,198.1 153.7,196.2 154.5,194.2 154.8,192.3 154.9,190.4 155.1,188.5 155.7,186.6 155.9,184.7 156.0,182.8 156.0,180.8 156.3,178.9 156.3,177.0 157.3,175.1 157.5,173.2 157.5,171.2 158.0,169.3 158.1,167.4 158.1,165.5 158.2,163.6 159.0,161.7 159.5,159.8 160.0,157.8 160.3,155.9 160.3,154.0 160.7,152.1 160.7,150.2 161.5,148.2 162.2,146.3 164.9,144.4 168.3,142.5 170.7,140.6 170.8,138.7 171.3,136.8 174.8,134.8 176.1,132.9 179.4,131.0 180.9,129.1 182.6,127.2 184.8,125.2 186.7,123.3 186.9,121.4 188.7,119.5 190.7,117.6 192.2,115.7 194.9,113.8 195.7,111.8 199.5,109.9 200.2,108.0 203.6,106.1 204.3,104.2 208.9,102.2 210.9,100.3 213.3,98.4 215.0,96.5 215.7,94.6 216.1,92.7 216.4,90.8 218.9,88.8 220.0,86.9 220.8,85.0"/>
<polyline fill="none" stroke="#2d6a4f" stroke-width="4" stroke-linejoin="round" stroke-linecap="round" points="109.2,658.1 109.5,656.2 109.6,654.2 109.7,652.3 109.8,650.4 109.8,648.5 109.9,646.6 110.3,644.7 110.3,642.8 110.3,640.8 110.6,638.9 110.6,637.0 110.7,635.1 110.9,633.2 111.0,631.2 111.0,629.3 111.0,627.4 111.1,625.5 111.1,623.6 111.2,621.7 111.2,619.8 111.4,617.8 111.5,615.9 111.5,614.0 111.7,612.1 112.1,610.2 112.2,608.2 112.2,606.3 112.5,604.4 112.6,602.5 112.8,600.6 113.0,598.7 113.1,596.8 113.1,594.8 113.2,592.9 113.2,591.0 113.3,589.1 113.3,587.2 113.4,585.2 113.5,583.3 113.5,581.4 113.6,579.5 113.9,577.6 114.0,575.7 114.1,573.8 114.1,571.8 114.1,569.9 114.2,568.0 114.6,566.1 114.6,564.2 114.6,562.2 114.7,560.3 114.9,558.4 115.0,556.5 115.4,554.6 115.5,552.7 115.6,550.8 115.6,548.8 115.8,546.9 115.8,545.0 115.8,543.1 115.8,541.2 115.8,539.2 115.9,537.3 116.1,535.4 116.4,533.5 116.5,531.6 116.6,529.7 116.6,527.8 117.2,525.8 117.3,523.9 117.4,522.0 117.7,520.1 118.1,518.2 118.2,516.2 118.4,514.3 118.5,512.4 118.5,510.5 118.7,508.6 118.8,506.7 119.2,504.8 119.3,502.8 120.4,500.9 120.5,499.0 121.2,497.1 121.3,495.2 121.4,493.2 121.5,491.3 121.5,489.4 121.6,487.5 121.8,485.6 122.6,483.7 122.7,481.8 122.8,479.8 123.1,477.9 123.7,476.0 124.0,474.1 124.1,472.2 124.2,470.2 124.2,468.3 124.3,466.4 124.4,464.5 124.8,462.6 125.1,460.7 125.4,458.8 125.7,456.8 125.7,454.9 126.0,453.0 126.2,451.1 126.3,449.2 126.3,447.2 126.5,445.3 127.0,443.4 127.2,441.5 127.7,439.6 127.9,437.7 128.0,435.8 128.2,433.8 128.3,431.9 128.5,430.0 128.5,428.1 128.6,426.2 128.7,424.2 129.0,422.3 129.1,420.4 129.2,418.5 129.2,416.6 129.5,414.7 129.8,412.8 130.1,410.8 130.6,408.9 131.1,407.0 131.3,405.1 131.4,403.2 131.7,401.2 131.8,399.3 132.0,397.4 132.0,395.5 132.5,393.6 132.8,391.7 133.1,389.8 133.2,387.8 133.2,385.9 133.3,384.0 133.4,382.1 133.5,380.2 133.5,378.2 133.7,376.3 133.7,374.4 133.7,372.5 133.8,370.6 133.8,368.7 134.1,366.8 134.1,364.8 134.2,362.9 134.7,361.0 134.7,359.1 134.8,357.2 134.9,355.2 135.0,353.3 135.1,351.4 136.0,349.5 136.2,347.6 136.4,345.7 137.0,343.8 137.1,341.8 137.4,339.9 137.6,338.0 137.6,336.1 137.7,334.2 138.1,332.2 138.5,330.3 138.9,328.4 139.4,326.5 139.5,324.6 140.1,322.7 140.3,320.8 140.8,318.8 140.9,316.9 141.0,315.0 141.0,313.1 141.1,311.2 141.3,309.2 141.3,307.3 141.3,305.4 141.4,303.5 141.5,301.6 141.6,299.7 141.9,297.8 142.3,295.8 142.4,293.9 142.8,292.0 142.8,290.1 143.7,288.2 143.9,286.2 144.0,284.3 144.3,282.4 144.6,280.5 144.7,278.6 144.7,276.7 144.9,274.8 144.9,272.8 145.1,270.9 145.3,269.0 145.9,267.1 146.2,265.2 146.3,263.3 146.4,261.3 146.5,259.4 146.7,257.5 146.8,255.6 147.0,253.7 147.6,251.8 147.7,249.8 148.1,247.9 148.2,246.0 148.2,244.1 148.4,242.2 148.8,240.2 149.5,238.3 149.7,236.4 149.9,234.5 150.1,232.6 150.6,230.7 150.6,228.8 151.3,226.8 151.3,224.9 151.3,223.0 151.4,221.1 151.7,219.2 152.1,217.2 152.2,215.3 152.3,213.4 152.6,211.5 152.7,209.6 152.9,207.7 153.0,205.8 153.1,203.8 153.1,201.9 153.5,200.0 153.5,198.1 153.7,196.2 154.5,194.2 154.8,192.3 154.9,190.4 155.1,188.5 155.7,186.6 155.9,184.7 156.0,182.8 156.0,180.8 156.3,178.9 156.3,177.0 157.3,175.1 157.5,173.2 157.5,171.2 158.0,169.3 158.1,167.4 158.1,165.5 158.2,163.6 159.0,161.7 159.5,159.8 160.0,157.8 160.3,155.9 160.3,154.0 160.7,152.1 160.7,150.2 161.5,148.2 162.2,146.3 164.9,144.4 168.3,142.5 170.7,140.6 170.8,138.7 171.3,136.8 174.8,134.8 176.1,132.9 179.4,131.0 180.9,129.1 182.6,127.2 184.8,125.2 186.7,123.3 186.9,121.4 188.7,119.5 190.7,117.6 192.2,115.7 194.9,113.8 195.7,111.8 199.5,109.9 200.2,108.0 203.6,106.1 204.3,104.2 208.9,102.2 210.9,100.3 213.3,98.4 215.0,96.5 215.7,94.6 216.1,92.7 216.4,90.8 218.9,88.8 220.0,86.9 220.8,85.0"/>
<line x1="105" y1="770" x2="133" y2="770" stroke="#2d6a4f" stroke-width="5" stroke-linecap="round"/>
<text x="145" y="776" font-family="Arial, sans-serif" font-size="18" fill="#2b2926">1: naive (PP1)</text>
<line x1="455" y1="770" x2="483" y2="770" stroke="#2d6a4f" stroke-width="5" stroke-linecap="round"/>
<text x="495" y="776" font-family="Arial, sans-serif" font-size="18" fill="#2b2926">2: cold redirect (PP1)</text>
<line x1="805" y1="770" x2="833" y2="770" stroke="#2d6a4f" stroke-width="5" stroke-linecap="round"/>
<text x="845" y="776" font-family="Arial, sans-serif" font-size="18" fill="#2b2926">3: KV migrate (PP1)</text>
<line x1="105" y1="798" x2="133" y2="798" stroke="#2d6a4f" stroke-width="5" stroke-linecap="round"/>
<text x="145" y="804" font-family="Arial, sans-serif" font-size="18" fill="#2b2926">4a: cold redirect (PP2)</text>
<line x1="455" y1="798" x2="483" y2="798" stroke="#2d6a4f" stroke-width="5" stroke-linecap="round"/>
<text x="495" y="804" font-family="Arial, sans-serif" font-size="18" fill="#2b2926">4b: KV migrate (PP2)</text>
<line x1="805" y1="798" x2="833" y2="798" stroke="#2d6a4f" stroke-width="5" stroke-linecap="round"/>
<text x="845" y="804" font-family="Arial, sans-serif" font-size="18" fill="#2b2926">5: KV migrate + proactive (PP2)</text>
</svg>