<svg xmlns="http://www.w3.org/2000/svg" width="1320" height="840" viewBox="0 0 1320 840">
<rect width="100%" height="100%" fill="#faf8f4"/>
<text x="660.0" y="42" text-anchor="middle" font-family="Arial, sans-serif" font-size="28" font-weight="700">Hongo 1x (300 req, seed1): TTFT CDF</text>
<text x="660.0" y="814" text-anchor="middle" font-family="Arial, sans-serif" font-size="20">TTFT (ms)</text>
<text x="28" y="372.5" transform="rotate(-90 28 372.5)" text-anchor="middle" font-family="Arial, sans-serif" font-size="20">CDF</text>
<line x1="105" y1="660.0" x2="1270" y2="660.0" stroke="#d9d2c8" stroke-width="1"/>
<text x="89" y="666.0" text-anchor="end" font-family="Arial, sans-serif" font-size="16" fill="#5f5b55">0.0</text>
<line x1="105" y1="545.0" x2="1270" y2="545.0" stroke="#d9d2c8" stroke-width="1"/>
<text x="89" y="551.0" text-anchor="end" font-family="Arial, sans-serif" font-size="16" fill="#5f5b55">0.2</text>
<line x1="105" y1="430.0" x2="1270" y2="430.0" stroke="#d9d2c8" stroke-width="1"/>
<text x="89" y="436.0" text-anchor="end" font-family="Arial, sans-serif" font-size="16" fill="#5f5b55">0.4</text>
<line x1="105" y1="315.0" x2="1270" y2="315.0" stroke="#d9d2c8" stroke-width="1"/>
<text x="89" y="321.0" text-anchor="end" font-family="Arial, sans-serif" font-size="16" fill="#5f5b55">0.6</text>
<line x1="105" y1="200.0" x2="1270" y2="200.0" stroke="#d9d2c8" stroke-width="1"/>
<text x="89" y="206.0" text-anchor="end" font-family="Arial, sans-serif" font-size="16" fill="#5f5b55">0.8</text>
<line x1="105" y1="85.0" x2="1270" y2="85.0" stroke="#d9d2c8" stroke-width="1"/>
<text x="89" y="91.0" text-anchor="end" font-family="Arial, sans-serif" font-size="16" fill="#5f5b55">1.0</text>
<line x1="105.0" y1="85" x2="105.0" y2="660" stroke="#d9d2c8" stroke-width="1"/>
<text x="105.0" y="694" text-anchor="middle" font-family="Arial, sans-serif" font-size="16" fill="#5f5b55">0</text>
<line x1="299.2" y1="85" x2="299.2" y2="660" stroke="#d9d2c8" stroke-width="1"/>
<text x="299.2" y="694" text-anchor="middle" font-family="Arial, sans-serif" font-size="16" fill="#5f5b55">130</text>
<line x1="493.3" y1="85" x2="493.3" y2="660" stroke="#d9d2c8" stroke-width="1"/>
<text x="493.3" y="694" text-anchor="middle" font-family="Arial, sans-serif" font-size="16" fill="#5f5b55">260</text>
<line x1="687.5" y1="85" x2="687.5" y2="660" stroke="#d9d2c8" stroke-width="1"/>
<text x="687.5" y="694" text-anchor="middle" font-family="Arial, sans-serif" font-size="16" fill="#5f5b55">391</text>
<line x1="881.7" y1="85" x2="881.7" y2="660" stroke="#d9d2c8" stroke-width="1"/>
<text x="881.7" y="694" text-anchor="middle" font-family="Arial, sans-serif" font-size="16" fill="#5f5b55">521</text>
<line x1="1075.8" y1="85" x2="1075.8" y2="660" stroke="#d9d2c8" stroke-width="1"/>
<text x="1075.8" y="694" text-anchor="middle" font-family="Arial, sans-serif" font-size="16" fill="#5f5b55">651</text>
<line x1="1270.0" y1="85" x2="1270.0" y2="660" stroke="#d9d2c8" stroke-width="1"/>
<text x="1270.0" y="694" text-anchor="middle" font-family="Arial, sans-serif" font-size="16" fill="#5f5b55">781</text>
<polyline fill="none" stroke="#c74b3a" stroke-width="4" stroke-linejoin="round" stroke-linecap="round" points="141.1,658.1 149.7,656.2 162.0,654.2 167.0,652.3 169.3,650.4 170.1,648.5 175.0,646.6 176.1,644.7 178.4,642.8 223.3,640.8 273.3,638.9 292.2,637.0 305.8,635.1 360.5,633.2 364.6,631.2 366.4,629.3 370.9,627.4 375.7,625.5 378.2,623.6 378.5,621.7 379.7,619.8 380.2,617.8 380.4,615.9 381.2,614.0 383.0,612.1 385.9,610.2 386.0,608.2 386.2,606.3 386.6,604.4 387.9,602.5 388.0,600.6 389.1,598.7 390.2,596.8 390.7,594.8 390.9,592.9 391.6,591.0 392.2,589.1 392.9,587.2 393.2,585.2 393.5,583.3 393.6,581.4 394.1,579.5 394.7,577.6 396.8,575.7 397.6,573.8 397.7,571.8 398.4,569.9 399.0,568.0 400.9,566.1 400.9,564.2 401.0,562.2 401.0,560.3 401.3,558.4 401.5,556.5 401.8,554.6 402.0,552.7 403.5,550.8 404.0,548.8 404.1,546.9 404.5,545.0 405.2,543.1 405.3,541.2 406.1,539.2 406.1,537.3 406.3,535.4 406.6,533.5 407.1,531.6 407.4,529.7 408.3,527.8 408.3,525.8 408.5,523.9 409.2,522.0 409.8,520.1 410.2,518.2 410.7,516.2 410.9,514.3 411.0,512.4 411.4,510.5 411.5,508.6 412.4,506.7 412.8,504.8 413.0,502.8 413.1,500.9 414.0,499.0 414.0,497.1 414.2,495.2 414.2,493.2 415.0,491.3 415.1,489.4 415.9,487.5 416.0,485.6 417.1,483.7 417.1,481.8 417.7,479.8 417.8,477.9 418.0,476.0 418.8,474.1 418.8,472.2 419.1,470.2 419.5,468.3 419.6,466.4 420.3,464.5 420.7,462.6 421.2,460.7 421.3,458.8 421.4,456.8 421.5,454.9 421.6,453.0 423.1,451.1 423.3,449.2 423.4,447.2 423.7,445.3 424.4,443.4 424.5,441.5 424.5,439.6 424.5,437.7 424.6,435.8 424.8,433.8 424.8,431.9 425.6,430.0 426.4,428.1 427.3,426.2 427.7,424.2 428.1,422.3 428.4,420.4 428.6,418.5 429.3,416.6 429.6,414.7 429.9,412.8 430.3,410.8 430.8,408.9 431.3,407.0 431.9,405.1 432.8,403.2 433.2,401.2 433.2,399.3 433.4,397.4 435.3,395.5 435.4,393.6 437.6,391.7 437.8,389.8 438.1,387.8 438.2,385.9 438.8,384.0 438.9,382.1 439.6,380.2 440.9,378.2 440.9,376.3 441.8,374.4 443.2,372.5 443.7,370.6 444.2,368.7 444.5,366.8 444.6,364.8 444.6,362.9 445.0,361.0 446.1,359.1 446.1,357.2 446.8,355.2 447.0,353.3 447.1,351.4 449.2,349.5 449.5,347.6 449.6,345.7 449.6,343.8 449.9,341.8 450.5,339.9 452.8,338.0 454.9,336.1 456.0,334.2 456.0,332.2 456.3,330.3 459.6,328.4 459.9,326.5 462.1,324.6 462.4,322.7 465.8,320.8 466.4,318.8 466.8,316.9 469.0,315.0 469.1,313.1 470.3,311.2 472.6,309.2 473.5,307.3 476.3,305.4 478.2,303.5 478.5,301.6 479.2,299.7 479.2,297.8 479.4,295.8 479.4,293.9 490.4,292.0 498.6,290.1 499.4,288.2 499.9,286.2 500.0,284.3 505.6,282.4 512.6,280.5 521.7,278.6 525.9,276.7 530.9,274.8 535.6,272.8 538.8,270.9 539.4,269.0 540.5,267.1 541.4,265.2 545.7,263.3 548.7,261.3 549.9,259.4 554.5,257.5 558.6,255.6 563.7,253.7 564.3,251.8 571.3,249.8 571.5,247.9 576.2,246.0 576.7,244.1 579.6,242.2 580.5,240.2 581.4,238.3 582.3,236.4 583.8,234.5 584.1,232.6 584.5,230.7 585.7,228.8 586.3,226.8 586.5,224.9 587.2,223.0 588.4,221.1 589.0,219.2 589.3,217.2 589.4,215.3 590.3,213.4 590.9,211.5 596.7,209.6 606.2,207.7 608.0,205.8 609.8,203.8 611.6,201.9 615.1,200.0 621.5,198.1 623.1,196.2 624.6,194.2 625.8,192.3 627.1,190.4 629.7,188.5 630.5,186.6 638.0,184.7 640.9,182.8 641.7,180.8 645.1,178.9 645.4,177.0 649.1,175.1 653.3,173.2 655.1,171.2 655.2,169.3 657.0,167.4 657.7,165.5 665.4,163.6 671.7,161.7 684.7,159.8 689.2,157.8 689.3,155.9 694.6,154.0 703.2,152.1 715.8,150.2 718.3,148.2 732.3,146.3 734.0,144.4 742.5,142.5 746.0,140.6 748.3,138.7 756.8,136.8 757.3,134.8 766.1,132.9 788.0,131.0 800.4,129.1 805.2,127.2 819.7,125.2 865.0,123.3 867.6,121.4 873.0,119.5 877.8,117.6 882.3,115.7 891.0,113.8 892.2,111.8 903.5,109.9 915.1,108.0 916.0,106.1 918.0,104.2 918.2,102.2 932.6,100.3 971.8,98.4 980.6,96.5 1021.8,94.6 1045.8,92.7 1076.5,90.8 1092.9,88.8 1098.0,86.9 1236.1,85.0"/>
<polyline fill="none" stroke="#e79b37" stroke-width="4" stroke-linejoin="round" stroke-linecap="round" points="141.1,658.1 149.7,656.2 162.0,654.2 167.0,652.3 169.3,650.4 170.1,648.5 175.0,646.6 176.1,644.7 178.4,642.8 223.3,640.8 273.3,638.9 292.2,637.0 305.8,635.1 360.5,633.2 364.6,631.2 366.4,629.3 370.9,627.4 375.7,625.5 378.2,623.6 378.5,621.7 379.7,619.8 380.2,617.8 380.4,615.9 381.2,614.0 383.0,612.1 385.9,610.2 386.0,608.2 386.2,606.3 386.6,604.4 387.9,602.5 388.0,600.6 389.1,598.7 390.2,596.8 390.7,594.8 390.9,592.9 391.6,591.0 392.2,589.1 392.9,587.2 393.2,585.2 393.5,583.3 393.6,581.4 394.1,579.5 394.7,577.6 396.8,575.7 397.6,573.8 397.7,571.8 398.4,569.9 399.0,568.0 400.9,566.1 400.9,564.2 401.0,562.2 401.0,560.3 401.3,558.4 401.5,556.5 401.8,554.6 402.0,552.7 403.5,550.8 404.0,548.8 404.1,546.9 404.5,545.0 405.2,543.1 405.3,541.2 406.1,539.2 406.1,537.3 406.3,535.4 406.6,533.5 407.1,531.6 407.4,529.7 408.3,527.8 408.3,525.8 408.5,523.9 409.2,522.0 409.8,520.1 410.2,518.2 410.7,516.2 410.9,514.3 411.0,512.4 411.4,510.5 411.5,508.6 412.4,506.7 412.8,504.8 413.0,502.8 413.1,500.9 414.0,499.0 414.0,497.1 414.2,495.2 414.2,493.2 415.0,491.3 415.1,489.4 415.9,487.5 416.0,485.6 417.1,483.7 417.1,481.8 417.7,479.8 417.8,477.9 418.0,476.0 418.8,474.1 418.8,472.2 419.1,470.2 419.5,468.3 419.6,466.4 420.3,464.5 420.7,462.6 421.2,460.7 421.3,458.8 421.4,456.8 421.5,454.9 421.6,453.0 423.1,451.1 423.3,449.2 423.4,447.2 423.7,445.3 424.4,443.4 424.5,441.5 424.5,439.6 424.5,437.7 424.6,435.8 424.8,433.8 424.8,431.9 425.6,430.0 426.4,428.1 427.3,426.2 427.7,424.2 428.1,422.3 428.4,420.4 428.6,418.5 429.3,416.6 429.6,414.7 429.9,412.8 430.3,410.8 430.8,408.9 431.3,407.0 431.9,405.1 432.8,403.2 433.2,401.2 433.2,399.3 433.4,397.4 435.3,395.5 435.4,393.6 437.6,391.7 437.8,389.8 438.1,387.8 438.2,385.9 438.8,384.0 438.9,382.1 439.6,380.2 440.9,378.2 440.9,376.3 441.8,374.4 443.2,372.5 443.7,370.6 444.2,368.7 444.5,366.8 444.6,364.8 444.6,362.9 445.0,361.0 446.1,359.1 446.1,357.2 446.8,355.2 447.0,353.3 447.1,351.4 449.2,349.5 449.5,347.6 449.6,345.7 449.6,343.8 449.9,341.8 450.5,339.9 452.8,338.0 454.9,336.1 456.0,334.2 456.0,332.2 456.3,330.3 459.6,328.4 459.9,326.5 462.1,324.6 462.4,322.7 465.8,320.8 466.4,318.8 466.8,316.9 469.0,315.0 469.1,313.1 470.3,311.2 472.6,309.2 473.5,307.3 476.3,305.4 478.2,303.5 478.5,301.6 479.2,299.7 479.2,297.8 479.4,295.8 479.4,293.9 490.4,292.0 498.6,290.1 499.4,288.2 499.9,286.2 500.0,284.3 505.6,282.4 512.6,280.5 521.7,278.6 525.9,276.7 530.9,274.8 535.6,272.8 538.8,270.9 539.4,269.0 540.5,267.1 541.4,265.2 545.7,263.3 548.7,261.3 549.9,259.4 554.5,257.5 558.6,255.6 563.7,253.7 564.3,251.8 571.3,249.8 571.5,247.9 576.2,246.0 576.7,244.1 579.6,242.2 580.5,240.2 581.4,238.3 582.3,236.4 583.8,234.5 584.1,232.6 584.5,230.7 585.7,228.8 586.3,226.8 586.5,224.9 587.2,223.0 588.4,221.1 589.0,219.2 589.3,217.2 589.4,215.3 590.3,213.4 590.9,211.5 596.7,209.6 606.2,207.7 608.0,205.8 609.8,203.8 611.6,201.9 615.1,200.0 621.5,198.1 623.1,196.2 624.6,194.2 625.8,192.3 627.1,190.4 629.7,188.5 630.5,186.6 638.0,184.7 640.9,182.8 641.7,180.8 645.1,178.9 645.4,177.0 649.1,175.1 653.3,173.2 655.1,171.2 655.2,169.3 657.0,167.4 657.7,165.5 665.4,163.6 671.7,161.7 684.7,159.8 689.2,157.8 689.3,155.9 694.6,154.0 703.2,152.1 715.8,150.2 718.3,148.2 732.3,146.3 734.0,144.4 742.5,142.5 746.0,140.6 748.3,138.7 756.8,136.8 757.3,134.8 766.1,132.9 788.0,131.0 800.4,129.1 805.2,127.2 819.7,125.2 865.0,123.3 867.6,121.4 873.0,119.5 877.8,117.6 882.3,115.7 891.0,113.8 892.2,111.8 903.5,109.9 915.1,108.0 916.0,106.1 918.0,104.2 918.2,102.2 932.6,100.3 971.8,98.4 980.6,96.5 1021.8,94.6 1045.8,92.7 1076.5,90.8 1092.9,88.8 1098.0,86.9 1236.1,85.0"/>
<polyline fill="none" stroke="#865bd6" stroke-width="4" stroke-linejoin="round" stroke-linecap="round" points="141.1,658.1 149.7,656.2 162.0,654.2 167.0,652.3 169.3,650.4 170.1,648.5 175.0,646.6 176.1,644.7 178.4,642.8 223.3,640.8 273.3,638.9 292.2,637.0 305.8,635.1 360.5,633.2 364.6,631.2 366.4,629.3 370.9,627.4 375.7,625.5 378.2,623.6 378.5,621.7 379.7,619.8 380.2,617.8 380.4,615.9 381.2,614.0 383.0,612.1 385.9,610.2 386.0,608.2 386.2,606.3 386.6,604.4 387.9,602.5 388.0,600.6 389.1,598.7 390.2,596.8 390.7,594.8 390.9,592.9 391.6,591.0 392.2,589.1 392.9,587.2 393.2,585.2 393.5,583.3 393.6,581.4 394.1,579.5 394.7,577.6 396.8,575.7 397.6,573.8 397.7,571.8 398.4,569.9 399.0,568.0 400.9,566.1 400.9,564.2 401.0,562.2 401.0,560.3 401.3,558.4 401.5,556.5 401.8,554.6 402.0,552.7 403.5,550.8 404.0,548.8 404.1,546.9 404.5,545.0 405.2,543.1 405.3,541.2 406.1,539.2 406.1,537.3 406.3,535.4 406.6,533.5 407.1,531.6 407.4,529.7 408.3,527.8 408.3,525.8 408.5,523.9 409.2,522.0 409.8,520.1 410.2,518.2 410.7,516.2 410.9,514.3 411.0,512.4 411.4,510.5 411.5,508.6 412.4,506.7 412.8,504.8 413.0,502.8 413.1,500.9 414.0,499.0 414.0,497.1 414.2,495.2 414.2,493.2 415.0,491.3 415.1,489.4 415.9,487.5 416.0,485.6 417.1,483.7 417.1,481.8 417.7,479.8 417.8,477.9 418.0,476.0 418.8,474.1 418.8,472.2 419.1,470.2 419.5,468.3 419.6,466.4 420.3,464.5 420.7,462.6 421.2,460.7 421.3,458.8 421.4,456.8 421.5,454.9 421.6,453.0 423.1,451.1 423.3,449.2 423.4,447.2 423.7,445.3 424.4,443.4 424.5,441.5 424.5,439.6 424.5,437.7 424.6,435.8 424.8,433.8 424.8,431.9 425.6,430.0 426.4,428.1 427.3,426.2 427.7,424.2 428.1,422.3 428.4,420.4 428.6,418.5 429.3,416.6 429.6,414.7 429.9,412.8 430.3,410.8 430.8,408.9 431.3,407.0 431.9,405.1 432.8,403.2 433.2,401.2 433.2,399.3 433.4,397.4 435.3,395.5 435.4,393.6 437.6,391.7 437.8,389.8 438.1,387.8 438.2,385.9 438.8,384.0 438.9,382.1 439.6,380.2 440.9,378.2 440.9,376.3 441.8,374.4 443.2,372.5 443.7,370.6 444.2,368.7 444.5,366.8 444.6,364.8 444.6,362.9 445.0,361.0 446.1,359.1 446.1,357.2 446.8,355.2 447.0,353.3 447.1,351.4 449.2,349.5 449.5,347.6 449.6,345.7 449.6,343.8 449.9,341.8 450.5,339.9 452.8,338.0 454.9,336.1 456.0,334.2 456.0,332.2 456.3,330.3 459.6,328.4 459.9,326.5 462.1,324.6 462.4,322.7 465.8,320.8 466.4,318.8 466.8,316.9 469.0,315.0 469.1,313.1 470.3,311.2 472.6,309.2 473.5,307.3 476.3,305.4 478.2,303.5 478.5,301.6 479.2,299.7 479.2,297.8 479.4,295.8 479.4,293.9 490.4,292.0 498.6,290.1 499.4,288.2 499.9,286.2 500.0,284.3 505.6,282.4 512.6,280.5 521.7,278.6 525.9,276.7 530.9,274.8 535.6,272.8 538.8,270.9 539.4,269.0 540.5,267.1 541.4,265.2 545.7,263.3 548.7,261.3 549.9,259.4 554.5,257.5 558.6,255.6 563.7,253.7 564.3,251.8 571.3,249.8 571.5,247.9 576.2,246.0 576.7,244.1 579.6,242.2 580.5,240.2 581.4,238.3 582.3,236.4 583.8,234.5 584.1,232.6 584.5,230.7 585.7,228.8 586.3,226.8 586.5,224.9 587.2,223.0 588.4,221.1 589.0,219.2 589.3,217.2 589.4,215.3 590.3,213.4 590.9,211.5 596.7,209.6 606.2,207.7 608.0,205.8 609.8,203.8 611.6,201.9 615.1,200.0 621.5,198.1 623.1,196.2 624.6,194.2 625.8,192.3 627.1,190.4 629.7,188.5 630.5,186.6 638.0,184.7 640.9,182.8 641.7,180.8 645.1,178.9 645.4,177.0 649.1,175.1 653.3,173.2 655.1,171.2 655.2,169.3 657.0,167.4 657.7,165.5 665.4,163.6 671.7,161.7 684.7,159.8 689.2,157.8 689.3,155.9 694.6,154.0 703.2,152.1 715.8,150.2 718.3,148.2 732.3,146.3 734.0,144.4 742.5,142.5 746.0,140.6 748.3,138.7 756.8,136.8 757.3,134.8 766.1,132.9 788.0,131.0 800.4,129.1 805.2,127.2 819.7,125.2 865.0,123.3 867.6,121.4 873.0,119.5 877.8,117.6 882.3,115.7 891.0,113.8 892.2,111.8 903.5,109.9 915.1,108.0 916.0,106.1 918.0,104.2 918.2,102.2 932.6,100.3 971.8,98.4 980.6,96.5 1021.8,94.6 1045.8,92.7 1076.5,90.8 1092.9,88.8 1098.0,86.9 1236.1,85.0"/>
<polyline fill="none" stroke="#e0459b" stroke-width="4" stroke-linejoin="round" stroke-linecap="round" points="149.1,658.1 149.5,656.2 155.3,654.2 157.0,652.3 157.7,650.4 162.6,648.5 167.4,646.6 172.1,644.7 203.5,642.8 213.1,640.8 247.2,638.9 280.4,637.0 290.8,635.1 308.1,633.2 350.2,631.2 361.6,629.3 365.8,627.4 371.0,625.5 371.9,623.6 372.6,621.7 373.0,619.8 377.7,617.8 378.1,615.9 378.2,614.0 378.2,612.1 380.4,610.2 380.5,608.2 380.9,606.3 381.6,604.4 382.7,602.5 383.1,600.6 383.9,598.7 384.8,596.8 385.2,594.8 385.8,592.9 387.1,591.0 387.9,589.1 389.8,587.2 390.3,585.2 391.3,583.3 391.5,581.4 391.8,579.5 392.3,577.6 393.2,575.7 393.8,573.8 393.9,571.8 395.3,569.9 395.4,568.0 396.1,566.1 397.1,564.2 397.7,562.2 398.0,560.3 398.3,558.4 398.3,556.5 399.0,554.6 399.1,552.7 399.7,550.8 400.6,548.8 401.1,546.9 402.0,545.0 402.0,543.1 402.2,541.2 402.4,539.2 402.7,537.3 402.7,535.4 402.7,533.5 403.0,531.6 404.0,529.7 404.1,527.8 404.7,525.8 404.9,523.9 405.6,522.0 406.6,520.1 407.2,518.2 407.3,516.2 407.4,514.3 407.7,512.4 408.5,510.5 408.6,508.6 408.8,506.7 409.1,504.8 409.2,502.8 409.4,500.9 409.4,499.0 410.6,497.1 410.9,495.2 411.1,493.2 411.4,491.3 411.9,489.4 412.6,487.5 413.0,485.6 413.3,483.7 413.6,481.8 413.7,479.8 413.7,477.9 414.0,476.0 414.4,474.1 414.4,472.2 414.4,470.2 414.5,468.3 414.9,466.4 415.7,464.5 415.7,462.6 416.0,460.7 416.1,458.8 417.0,456.8 417.0,454.9 417.7,453.0 418.0,451.1 418.4,449.2 418.4,447.2 419.3,445.3 420.0,443.4 420.6,441.5 421.7,439.6 422.2,437.7 422.2,435.8 422.5,433.8 422.8,431.9 423.2,430.0 423.3,428.1 424.6,426.2 424.8,424.2 425.0,422.3 425.1,420.4 425.7,418.5 425.8,416.6 426.3,414.7 426.4,412.8 426.7,410.8 427.7,408.9 429.0,407.0 429.8,405.1 430.5,403.2 432.2,401.2 432.4,399.3 435.8,397.4 436.4,395.5 437.3,393.6 438.8,391.7 438.8,389.8 439.4,387.8 439.8,385.9 440.0,384.0 440.1,382.1 440.6,380.2 441.3,378.2 442.0,376.3 444.0,374.4 445.7,372.5 447.8,370.6 448.8,368.7 449.0,366.8 449.9,364.8 451.0,362.9 456.0,361.0 456.9,359.1 457.3,357.2 457.4,355.2 458.0,353.3 458.3,351.4 458.8,349.5 459.9,347.6 460.3,345.7 461.2,343.8 463.3,341.8 466.4,339.9 466.9,338.0 468.3,336.1 468.5,334.2 469.0,332.2 469.2,330.3 469.3,328.4 469.9,326.5 470.3,324.6 470.5,322.7 471.0,320.8 471.4,318.8 472.7,316.9 473.0,315.0 473.3,313.1 473.7,311.2 475.5,309.2 477.6,307.3 478.6,305.4 498.9,303.5 503.9,301.6 504.5,299.7 506.4,297.8 507.0,295.8 508.6,293.9 509.1,292.0 510.9,290.1 518.9,288.2 520.6,286.2 522.7,284.3 531.0,282.4 532.4,280.5 532.6,278.6 533.4,276.7 534.6,274.8 541.1,272.8 546.0,270.9 549.6,269.0 549.8,267.1 551.7,265.2 551.9,263.3 552.4,261.3 552.4,259.4 554.3,257.5 555.3,255.6 555.4,253.7 556.1,251.8 556.3,249.8 556.5,247.9 556.9,246.0 560.5,244.1 560.8,242.2 564.1,240.2 565.6,238.3 567.4,236.4 574.0,234.5 575.1,232.6 576.4,230.7 577.2,228.8 577.9,226.8 579.9,224.9 581.3,223.0 582.0,221.1 587.7,219.2 588.7,217.2 589.7,215.3 593.0,213.4 593.2,211.5 593.3,209.6 593.5,207.7 594.0,205.8 597.0,203.8 597.9,201.9 598.2,200.0 598.4,198.1 604.3,196.2 607.0,194.2 607.9,192.3 615.3,190.4 618.6,188.5 620.8,186.6 625.4,184.7 628.9,182.8 634.7,180.8 636.4,178.9 637.2,177.0 639.0,175.1 640.2,173.2 646.0,171.2 649.6,169.3 655.5,167.4 664.5,165.5 667.5,163.6 668.0,161.7 678.7,159.8 678.7,157.8 680.8,155.9 687.6,154.0 689.7,152.1 690.7,150.2 697.7,148.2 706.8,146.3 708.1,144.4 710.6,142.5 712.1,140.6 716.6,138.7 724.3,136.8 727.3,134.8 729.1,132.9 733.3,131.0 737.9,129.1 738.8,127.2 739.9,125.2 741.4,123.3 760.5,121.4 774.5,119.5 775.3,117.6 778.2,115.7 791.3,113.8 836.2,111.8 847.7,109.9 875.9,108.0 877.0,106.1 890.9,104.2 891.5,102.2 896.1,100.3 900.1,98.4 911.3,96.5 911.7,94.6 920.0,92.7 924.8,90.8 932.1,88.8 962.1,86.9 1022.8,85.0"/>
<polyline fill="none" stroke="#31866f" stroke-width="4" stroke-linejoin="round" stroke-linecap="round" points="149.1,658.1 149.5,656.2 155.3,654.2 157.0,652.3 157.7,650.4 162.6,648.5 167.4,646.6 172.1,644.7 203.5,642.8 213.1,640.8 247.2,638.9 280.4,637.0 290.8,635.1 308.1,633.2 350.2,631.2 361.6,629.3 365.8,627.4 371.0,625.5 371.9,623.6 372.6,621.7 373.0,619.8 377.7,617.8 378.1,615.9 378.2,614.0 378.2,612.1 380.4,610.2 380.5,608.2 380.9,606.3 381.6,604.4 382.7,602.5 383.1,600.6 383.9,598.7 384.8,596.8 385.2,594.8 385.8,592.9 387.1,591.0 387.9,589.1 389.8,587.2 390.3,585.2 391.3,583.3 391.5,581.4 391.8,579.5 392.3,577.6 393.2,575.7 393.8,573.8 393.9,571.8 395.3,569.9 395.4,568.0 396.1,566.1 397.1,564.2 397.7,562.2 398.0,560.3 398.3,558.4 398.3,556.5 399.0,554.6 399.1,552.7 399.7,550.8 400.6,548.8 401.1,546.9 402.0,545.0 402.0,543.1 402.2,541.2 402.4,539.2 402.7,537.3 402.7,535.4 402.7,533.5 403.0,531.6 404.0,529.7 404.1,527.8 404.7,525.8 404.9,523.9 405.6,522.0 406.6,520.1 407.2,518.2 407.3,516.2 407.4,514.3 407.7,512.4 408.5,510.5 408.6,508.6 408.8,506.7 409.1,504.8 409.2,502.8 409.4,500.9 409.4,499.0 410.6,497.1 410.9,495.2 411.1,493.2 411.4,491.3 411.9,489.4 412.6,487.5 413.0,485.6 413.3,483.7 413.6,481.8 413.7,479.8 413.7,477.9 414.0,476.0 414.4,474.1 414.4,472.2 414.4,470.2 414.5,468.3 414.9,466.4 415.7,464.5 415.7,462.6 416.0,460.7 416.1,458.8 417.0,456.8 417.0,454.9 417.7,453.0 418.0,451.1 418.4,449.2 418.4,447.2 419.3,445.3 420.0,443.4 420.6,441.5 421.7,439.6 422.2,437.7 422.2,435.8 422.5,433.8 422.8,431.9 423.2,430.0 423.3,428.1 424.6,426.2 424.8,424.2 425.0,422.3 425.1,420.4 425.7,418.5 425.8,416.6 426.3,414.7 426.4,412.8 426.7,410.8 427.7,408.9 429.0,407.0 429.8,405.1 430.5,403.2 432.2,401.2 432.4,399.3 435.8,397.4 436.4,395.5 437.3,393.6 438.8,391.7 438.8,389.8 439.4,387.8 439.8,385.9 440.0,384.0 440.1,382.1 440.6,380.2 441.3,378.2 442.0,376.3 444.0,374.4 445.7,372.5 447.8,370.6 448.8,368.7 449.0,366.8 449.9,364.8 451.0,362.9 456.0,361.0 456.9,359.1 457.3,357.2 457.4,355.2 458.0,353.3 458.3,351.4 458.8,349.5 459.9,347.6 460.3,345.7 461.2,343.8 463.3,341.8 466.4,339.9 466.9,338.0 468.3,336.1 468.5,334.2 469.0,332.2 469.2,330.3 469.3,328.4 469.9,326.5 470.3,324.6 470.5,322.7 471.0,320.8 471.4,318.8 472.7,316.9 473.0,315.0 473.3,313.1 473.7,311.2 475.5,309.2 477.6,307.3 478.6,305.4 498.9,303.5 503.9,301.6 504.5,299.7 506.4,297.8 507.0,295.8 508.6,293.9 509.1,292.0 510.9,290.1 518.9,288.2 520.6,286.2 522.7,284.3 531.0,282.4 532.4,280.5 532.6,278.6 533.4,276.7 534.6,274.8 541.1,272.8 546.0,270.9 549.6,269.0 549.8,267.1 551.7,265.2 551.9,263.3 552.4,261.3 552.4,259.4 554.3,257.5 555.3,255.6 555.4,253.7 556.1,251.8 556.3,249.8 556.5,247.9 556.9,246.0 560.5,244.1 560.8,242.2 564.1,240.2 565.6,238.3 567.4,236.4 574.0,234.5 575.1,232.6 576.4,230.7 577.2,228.8 577.9,226.8 579.9,224.9 581.3,223.0 582.0,221.1 587.7,219.2 588.7,217.2 589.7,215.3 593.0,213.4 593.2,211.5 593.3,209.6 593.5,207.7 594.0,205.8 597.0,203.8 597.9,201.9 598.2,200.0 598.4,198.1 604.3,196.2 607.0,194.2 607.9,192.3 615.3,190.4 618.6,188.5 620.8,186.6 625.4,184.7 628.9,182.8 634.7,180.8 636.4,178.9 637.2,177.0 639.0,175.1 640.2,173.2 646.0,171.2 649.6,169.3 655.5,167.4 664.5,165.5 667.5,163.6 668.0,161.7 678.7,159.8 678.7,157.8 680.8,155.9 687.6,154.0 689.7,152.1 690.7,150.2 697.7,148.2 706.8,146.3 708.1,144.4 710.6,142.5 712.1,140.6 716.6,138.7 724.3,136.8 727.3,134.8 729.1,132.9 733.3,131.0 737.9,129.1 738.8,127.2 739.9,125.2 741.4,123.3 760.5,121.4 774.5,119.5 775.3,117.6 778.2,115.7 791.3,113.8 836.2,111.8 847.7,109.9 875.9,108.0 877.0,106.1 890.9,104.2 891.5,102.2 896.1,100.3 900.1,98.4 911.3,96.5 911.7,94.6 920.0,92.7 924.8,90.8 932.1,88.8 962.1,86.9 1022.8,85.0"/>
<line x1="105" y1="770" x2="133" y2="770" stroke="#c74b3a" stroke-width="5" stroke-linecap="round"/>
<text x="145" y="776" font-family="Arial, sans-serif" font-size="18" fill="#2b2926">1: no_redirect</text>
<line x1="455" y1="770" x2="483" y2="770" stroke="#e79b37" stroke-width="5" stroke-linecap="round"/>
<text x="495" y="776" font-family="Arial, sans-serif" font-size="18" fill="#2b2926">2: redirect_no_kv</text>
<line x1="805" y1="770" x2="833" y2="770" stroke="#865bd6" stroke-width="5" stroke-linecap="round"/>
<text x="845" y="776" font-family="Arial, sans-serif" font-size="18" fill="#2b2926">3: redirect_kv_nopp</text>
<line x1="105" y1="798" x2="133" y2="798" stroke="#e0459b" stroke-width="5" stroke-linecap="round"/>
<text x="145" y="804" font-family="Arial, sans-serif" font-size="18" fill="#2b2926">4: redirect_kv_pp2</text>
<line x1="455" y1="798" x2="483" y2="798" stroke="#31866f" stroke-width="5" stroke-linecap="round"/>
<text x="495" y="804" font-family="Arial, sans-serif" font-size="18" fill="#2b2926">5: redirect_kv_pp2_c</text>
</svg>