<svg xmlns="http://www.w3.org/2000/svg" width="1500" height="604" viewBox="0 0 1500 604">
<rect width="100%" height="100%" fill="#faf8f4"/>
<text x="750.0" y="42" text-anchor="middle" font-family="Arial, sans-serif" font-size="28" font-weight="700">Hongo 2x: four-arm TTFT breakdown</text>
<text x="750.0" y="576" text-anchor="middle" font-family="Arial, sans-serif" font-size="20">mean E2E TTFT components (ms)</text>
<line x1="260.0" y1="80" x2="260.0" y2="404" stroke="#d9d2c8" stroke-width="1"/>
<text x="260.0" y="432" text-anchor="middle" font-family="Arial, sans-serif" font-size="16" fill="#5f5b55">0</text>
<line x1="438.3" y1="80" x2="438.3" y2="404" stroke="#d9d2c8" stroke-width="1"/>
<text x="438.3" y="432" text-anchor="middle" font-family="Arial, sans-serif" font-size="16" fill="#5f5b55">89</text>
<line x1="616.7" y1="80" x2="616.7" y2="404" stroke="#d9d2c8" stroke-width="1"/>
<text x="616.7" y="432" text-anchor="middle" font-family="Arial, sans-serif" font-size="16" fill="#5f5b55">179</text>
<line x1="795.0" y1="80" x2="795.0" y2="404" stroke="#d9d2c8" stroke-width="1"/>
<text x="795.0" y="432" text-anchor="middle" font-family="Arial, sans-serif" font-size="16" fill="#5f5b55">268</text>
<line x1="973.3" y1="80" x2="973.3" y2="404" stroke="#d9d2c8" stroke-width="1"/>
<text x="973.3" y="432" text-anchor="middle" font-family="Arial, sans-serif" font-size="16" fill="#5f5b55">358</text>
<line x1="1151.7" y1="80" x2="1151.7" y2="404" stroke="#d9d2c8" stroke-width="1"/>
<text x="1151.7" y="432" text-anchor="middle" font-family="Arial, sans-serif" font-size="16" fill="#5f5b55">447</text>
<line x1="1330.0" y1="80" x2="1330.0" y2="404" stroke="#d9d2c8" stroke-width="1"/>
<text x="1330.0" y="432" text-anchor="middle" font-family="Arial, sans-serif" font-size="16" fill="#5f5b55">536</text>
<text x="242" y="118" text-anchor="end" font-family="Arial, sans-serif" font-size="21" fill="#2b2926">1: no_redirect</text>
<rect x="260.0" y="90.0" width="273.2" height="42" fill="#c74b3a" stroke="#faf8f4" stroke-width="2"/>
<text x="396.6" y="117" text-anchor="middle" font-family="Arial, sans-serif" font-size="15" font-weight="700" fill="#fffdf8">136.9</text>
<rect x="533.2" y="90.0" width="85.4" height="42" fill="#e79b37" stroke="#faf8f4" stroke-width="2"/>
<text x="575.9" y="117" text-anchor="middle" font-family="Arial, sans-serif" font-size="15" font-weight="700" fill="#1f1d1a">42.8</text>
<rect x="618.6" y="90.0" width="0.0" height="42" fill="#865bd6" stroke="#faf8f4" stroke-width="2"/>
<rect x="618.6" y="90.0" width="0.0" height="42" fill="#e0459b" stroke="#faf8f4" stroke-width="2"/>
<rect x="618.6" y="90.0" width="530.5" height="42" fill="#31866f" stroke="#faf8f4" stroke-width="2"/>
<text x="883.9" y="117" text-anchor="middle" font-family="Arial, sans-serif" font-size="15" font-weight="700" fill="#fffdf8">265.9</text>
<rect x="1149.1" y="90.0" width="2.6" height="42" fill="#4f83c2" stroke="#faf8f4" stroke-width="2"/>
<text x="1167.7" y="118" font-family="Arial, sans-serif" font-size="20" font-weight="700" fill="#2b2926">447 ms</text>
<text x="242" y="194" text-anchor="end" font-family="Arial, sans-serif" font-size="21" fill="#2b2926">2: redirect_no_kv</text>
<rect x="260.0" y="166.0" width="0.0" height="42" fill="#c74b3a" stroke="#faf8f4" stroke-width="2"/>
<rect x="260.0" y="166.0" width="108.8" height="42" fill="#e79b37" stroke="#faf8f4" stroke-width="2"/>
<text x="314.4" y="193" text-anchor="middle" font-family="Arial, sans-serif" font-size="15" font-weight="700" fill="#1f1d1a">54.5</text>
<rect x="368.8" y="166.0" width="0.0" height="42" fill="#865bd6" stroke="#faf8f4" stroke-width="2"/>
<rect x="368.8" y="166.0" width="0.0" height="42" fill="#e0459b" stroke="#faf8f4" stroke-width="2"/>
<rect x="368.8" y="166.0" width="584.9" height="42" fill="#31866f" stroke="#faf8f4" stroke-width="2"/>
<text x="661.3" y="193" text-anchor="middle" font-family="Arial, sans-serif" font-size="15" font-weight="700" fill="#fffdf8">293.1</text>
<rect x="953.7" y="166.0" width="2.6" height="42" fill="#4f83c2" stroke="#faf8f4" stroke-width="2"/>
<text x="972.3" y="194" font-family="Arial, sans-serif" font-size="20" font-weight="700" fill="#2b2926">349 ms</text>
<text x="242" y="270" text-anchor="end" font-family="Arial, sans-serif" font-size="21" fill="#2b2926">3: redirect_kv_nopp</text>
<rect x="260.0" y="242.0" width="0.0" height="42" fill="#c74b3a" stroke="#faf8f4" stroke-width="2"/>
<rect x="260.0" y="242.0" width="91.3" height="42" fill="#e79b37" stroke="#faf8f4" stroke-width="2"/>
<text x="305.6" y="269" text-anchor="middle" font-family="Arial, sans-serif" font-size="15" font-weight="700" fill="#1f1d1a">45.7</text>
<rect x="351.3" y="242.0" width="17.0" height="42" fill="#865bd6" stroke="#faf8f4" stroke-width="2"/>
<rect x="368.2" y="242.0" width="0.0" height="42" fill="#e0459b" stroke="#faf8f4" stroke-width="2"/>
<rect x="368.2" y="242.0" width="538.1" height="42" fill="#31866f" stroke="#faf8f4" stroke-width="2"/>
<text x="637.3" y="269" text-anchor="middle" font-family="Arial, sans-serif" font-size="15" font-weight="700" fill="#fffdf8">269.7</text>
<rect x="906.3" y="242.0" width="2.6" height="42" fill="#4f83c2" stroke="#faf8f4" stroke-width="2"/>
<text x="924.9" y="270" font-family="Arial, sans-serif" font-size="20" font-weight="700" fill="#2b2926">325 ms</text>
<text x="242" y="346" text-anchor="end" font-family="Arial, sans-serif" font-size="21" fill="#2b2926">4: redirect_kv_pp2</text>
<rect x="260.0" y="318.0" width="0.0" height="42" fill="#c74b3a" stroke="#faf8f4" stroke-width="2"/>
<rect x="260.0" y="318.0" width="66.0" height="42" fill="#e79b37" stroke="#faf8f4" stroke-width="2"/>
<text x="293.0" y="345" text-anchor="middle" font-family="Arial, sans-serif" font-size="15" font-weight="700" fill="#1f1d1a">33.1</text>
<rect x="326.0" y="318.0" width="0.0" height="42" fill="#865bd6" stroke="#faf8f4" stroke-width="2"/>
<rect x="326.0" y="318.0" width="4.0" height="42" fill="#e0459b" stroke="#faf8f4" stroke-width="2"/>
<rect x="330.0" y="318.0" width="550.3" height="42" fill="#31866f" stroke="#faf8f4" stroke-width="2"/>
<text x="605.1" y="345" text-anchor="middle" font-family="Arial, sans-serif" font-size="15" font-weight="700" fill="#fffdf8">275.8</text>
<rect x="880.2" y="318.0" width="2.6" height="42" fill="#4f83c2" stroke="#faf8f4" stroke-width="2"/>
<text x="898.8" y="346" font-family="Arial, sans-serif" font-size="20" font-weight="700" fill="#2b2926">312 ms</text>
<rect x="260" y="442" width="22" height="22" fill="#c74b3a" rx="4"/>
<text x="294" y="459" font-family="Arial, sans-serif" font-size="18" fill="#2b2926">Router queue</text>
<rect x="620" y="442" width="22" height="22" fill="#e79b37" rx="4"/>
<text x="654" y="459" font-family="Arial, sans-serif" font-size="18" fill="#2b2926">Scheduler queue</text>
<rect x="980" y="442" width="22" height="22" fill="#865bd6" rx="4"/>
<text x="1014" y="459" font-family="Arial, sans-serif" font-size="18" fill="#2b2926">KV transfer</text>
<rect x="260" y="476" width="22" height="22" fill="#e0459b" rx="4"/>
<text x="294" y="493" font-family="Arial, sans-serif" font-size="18" fill="#2b2926">PP transfer (est.)</text>
<rect x="620" y="476" width="22" height="22" fill="#31866f" rx="4"/>
<text x="654" y="493" font-family="Arial, sans-serif" font-size="18" fill="#2b2926">Compute / prefill</text>
<rect x="980" y="476" width="22" height="22" fill="#4f83c2" rx="4"/>
<text x="1014" y="493" font-family="Arial, sans-serif" font-size="18" fill="#2b2926">RTT / other comm</text>
</svg>