<svg xmlns="http://www.w3.org/2000/svg" width="1500" height="604" viewBox="0 0 1500 604">
<rect width="100%" height="100%" fill="#faf8f4"/>
<text x="750.0" y="42" text-anchor="middle" font-family="Arial, sans-serif" font-size="28" font-weight="700">Hongo 9x: four-arm TTFT breakdown</text>
<text x="750.0" y="576" text-anchor="middle" font-family="Arial, sans-serif" font-size="20">mean E2E TTFT components (ms)</text>
<line x1="260.0" y1="80" x2="260.0" y2="404" stroke="#d9d2c8" stroke-width="1"/>
<text x="260.0" y="432" text-anchor="middle" font-family="Arial, sans-serif" font-size="16" fill="#5f5b55">0</text>
<line x1="438.3" y1="80" x2="438.3" y2="404" stroke="#d9d2c8" stroke-width="1"/>
<text x="438.3" y="432" text-anchor="middle" font-family="Arial, sans-serif" font-size="16" fill="#5f5b55">494</text>
<line x1="616.7" y1="80" x2="616.7" y2="404" stroke="#d9d2c8" stroke-width="1"/>
<text x="616.7" y="432" text-anchor="middle" font-family="Arial, sans-serif" font-size="16" fill="#5f5b55">988</text>
<line x1="795.0" y1="80" x2="795.0" y2="404" stroke="#d9d2c8" stroke-width="1"/>
<text x="795.0" y="432" text-anchor="middle" font-family="Arial, sans-serif" font-size="16" fill="#5f5b55">1482</text>
<line x1="973.3" y1="80" x2="973.3" y2="404" stroke="#d9d2c8" stroke-width="1"/>
<text x="973.3" y="432" text-anchor="middle" font-family="Arial, sans-serif" font-size="16" fill="#5f5b55">1975</text>
<line x1="1151.7" y1="80" x2="1151.7" y2="404" stroke="#d9d2c8" stroke-width="1"/>
<text x="1151.7" y="432" text-anchor="middle" font-family="Arial, sans-serif" font-size="16" fill="#5f5b55">2469</text>
<line x1="1330.0" y1="80" x2="1330.0" y2="404" stroke="#d9d2c8" stroke-width="1"/>
<text x="1330.0" y="432" text-anchor="middle" font-family="Arial, sans-serif" font-size="16" fill="#5f5b55">2963</text>
<text x="242" y="118" text-anchor="end" font-family="Arial, sans-serif" font-size="21" fill="#2b2926">1: no_redirect</text>
<rect x="260.0" y="90.0" width="522.3" height="42" fill="#c74b3a" stroke="#faf8f4" stroke-width="2"/>
<text x="521.1" y="117" text-anchor="middle" font-family="Arial, sans-serif" font-size="15" font-weight="700" fill="#fffdf8">1446.3</text>
<rect x="782.3" y="90.0" width="188.0" height="42" fill="#e79b37" stroke="#faf8f4" stroke-width="2"/>
<text x="876.3" y="117" text-anchor="middle" font-family="Arial, sans-serif" font-size="15" font-weight="700" fill="#1f1d1a">520.5</text>
<rect x="970.2" y="90.0" width="0.0" height="42" fill="#865bd6" stroke="#faf8f4" stroke-width="2"/>
<rect x="970.2" y="90.0" width="0.0" height="42" fill="#e0459b" stroke="#faf8f4" stroke-width="2"/>
<rect x="970.2" y="90.0" width="147.1" height="42" fill="#31866f" stroke="#faf8f4" stroke-width="2"/>
<text x="1043.8" y="117" text-anchor="middle" font-family="Arial, sans-serif" font-size="15" font-weight="700" fill="#fffdf8">407.4</text>
<rect x="1117.3" y="90.0" width="0.5" height="42" fill="#4f83c2" stroke="#faf8f4" stroke-width="2"/>
<text x="1133.8" y="118" font-family="Arial, sans-serif" font-size="20" font-weight="700" fill="#2b2926">2375 ms</text>
<text x="242" y="194" text-anchor="end" font-family="Arial, sans-serif" font-size="21" fill="#2b2926">2: redirect_no_kv</text>
<rect x="260.0" y="166.0" width="499.0" height="42" fill="#c74b3a" stroke="#faf8f4" stroke-width="2"/>
<text x="509.5" y="193" text-anchor="middle" font-family="Arial, sans-serif" font-size="15" font-weight="700" fill="#fffdf8">1381.9</text>
<rect x="759.0" y="166.0" width="225.8" height="42" fill="#e79b37" stroke="#faf8f4" stroke-width="2"/>
<text x="871.9" y="193" text-anchor="middle" font-family="Arial, sans-serif" font-size="15" font-weight="700" fill="#1f1d1a">625.3</text>
<rect x="984.8" y="166.0" width="0.0" height="42" fill="#865bd6" stroke="#faf8f4" stroke-width="2"/>
<rect x="984.8" y="166.0" width="0.0" height="42" fill="#e0459b" stroke="#faf8f4" stroke-width="2"/>
<rect x="984.8" y="166.0" width="166.3" height="42" fill="#31866f" stroke="#faf8f4" stroke-width="2"/>
<text x="1068.0" y="193" text-anchor="middle" font-family="Arial, sans-serif" font-size="15" font-weight="700" fill="#fffdf8">460.6</text>
<rect x="1151.1" y="166.0" width="0.5" height="42" fill="#4f83c2" stroke="#faf8f4" stroke-width="2"/>
<text x="1167.7" y="194" font-family="Arial, sans-serif" font-size="20" font-weight="700" fill="#2b2926">2469 ms</text>
<text x="242" y="270" text-anchor="end" font-family="Arial, sans-serif" font-size="21" fill="#2b2926">3: redirect_kv_nopp</text>
<rect x="260.0" y="242.0" width="406.9" height="42" fill="#c74b3a" stroke="#faf8f4" stroke-width="2"/>
<text x="463.4" y="269" text-anchor="middle" font-family="Arial, sans-serif" font-size="15" font-weight="700" fill="#fffdf8">1126.7</text>
<rect x="666.9" y="242.0" width="200.9" height="42" fill="#e79b37" stroke="#faf8f4" stroke-width="2"/>
<text x="767.3" y="269" text-anchor="middle" font-family="Arial, sans-serif" font-size="15" font-weight="700" fill="#1f1d1a">556.2</text>
<rect x="867.7" y="242.0" width="25.3" height="42" fill="#865bd6" stroke="#faf8f4" stroke-width="2"/>
<rect x="893.0" y="242.0" width="0.0" height="42" fill="#e0459b" stroke="#faf8f4" stroke-width="2"/>
<rect x="893.0" y="242.0" width="151.2" height="42" fill="#31866f" stroke="#faf8f4" stroke-width="2"/>
<text x="968.6" y="269" text-anchor="middle" font-family="Arial, sans-serif" font-size="15" font-weight="700" fill="#fffdf8">418.7</text>
<rect x="1044.2" y="242.0" width="0.5" height="42" fill="#4f83c2" stroke="#faf8f4" stroke-width="2"/>
<text x="1060.7" y="270" font-family="Arial, sans-serif" font-size="20" font-weight="700" fill="#2b2926">2173 ms</text>
<text x="242" y="346" text-anchor="end" font-family="Arial, sans-serif" font-size="21" fill="#2b2926">4: redirect_kv_pp2</text>
<rect x="260.0" y="318.0" width="0.0" height="42" fill="#c74b3a" stroke="#faf8f4" stroke-width="2"/>
<rect x="260.0" y="318.0" width="434.3" height="42" fill="#e79b37" stroke="#faf8f4" stroke-width="2"/>
<text x="477.2" y="345" text-anchor="middle" font-family="Arial, sans-serif" font-size="15" font-weight="700" fill="#1f1d1a">1202.8</text>
<rect x="694.3" y="318.0" width="0.0" height="42" fill="#865bd6" stroke="#faf8f4" stroke-width="2"/>
<rect x="694.3" y="318.0" width="0.7" height="42" fill="#e0459b" stroke="#faf8f4" stroke-width="2"/>
<rect x="695.1" y="318.0" width="189.5" height="42" fill="#31866f" stroke="#faf8f4" stroke-width="2"/>
<text x="789.8" y="345" text-anchor="middle" font-family="Arial, sans-serif" font-size="15" font-weight="700" fill="#fffdf8">524.7</text>
<rect x="884.5" y="318.0" width="0.5" height="42" fill="#4f83c2" stroke="#faf8f4" stroke-width="2"/>
<text x="901.0" y="346" font-family="Arial, sans-serif" font-size="20" font-weight="700" fill="#2b2926">1731 ms</text>
<rect x="260" y="442" width="22" height="22" fill="#c74b3a" rx="4"/>
<text x="294" y="459" font-family="Arial, sans-serif" font-size="18" fill="#2b2926">Router queue</text>
<rect x="620" y="442" width="22" height="22" fill="#e79b37" rx="4"/>
<text x="654" y="459" font-family="Arial, sans-serif" font-size="18" fill="#2b2926">Scheduler queue</text>
<rect x="980" y="442" width="22" height="22" fill="#865bd6" rx="4"/>
<text x="1014" y="459" font-family="Arial, sans-serif" font-size="18" fill="#2b2926">KV transfer</text>
<rect x="260" y="476" width="22" height="22" fill="#e0459b" rx="4"/>
<text x="294" y="493" font-family="Arial, sans-serif" font-size="18" fill="#2b2926">PP transfer (est.)</text>
<rect x="620" y="476" width="22" height="22" fill="#31866f" rx="4"/>
<text x="654" y="493" font-family="Arial, sans-serif" font-size="18" fill="#2b2926">Compute / prefill</text>
<rect x="980" y="476" width="22" height="22" fill="#4f83c2" rx="4"/>
<text x="1014" y="493" font-family="Arial, sans-serif" font-size="18" fill="#2b2926">RTT / other comm</text>
</svg>