<svg xmlns="http://www.w3.org/2000/svg" width="1320" height="800" viewBox="0 0 1320 800">
<rect width="100%" height="100%" fill="#faf8f4"/>
<text x="660.0" y="42" text-anchor="middle" font-family="Arial, sans-serif" font-size="28" font-weight="700">Hongo peak_3x_repeat600: TPOT CDF</text>
<line x1="105" y1="690.0" x2="1270" y2="690.0" stroke="#d9d2c8"/>
<text x="89" y="696.0" text-anchor="end" font-family="Arial, sans-serif" font-size="16">0.0</text>
<line x1="105.0" y1="85" x2="105.0" y2="690" stroke="#d9d2c8"/>
<text x="105.0" y="722" text-anchor="middle" font-family="Arial, sans-serif" font-size="16">0</text>
<line x1="105" y1="569.0" x2="1270" y2="569.0" stroke="#d9d2c8"/>
<text x="89" y="575.0" text-anchor="end" font-family="Arial, sans-serif" font-size="16">0.2</text>
<line x1="338.0" y1="85" x2="338.0" y2="690" stroke="#d9d2c8"/>
<text x="338.0" y="722" text-anchor="middle" font-family="Arial, sans-serif" font-size="16">67</text>
<line x1="105" y1="448.0" x2="1270" y2="448.0" stroke="#d9d2c8"/>
<text x="89" y="454.0" text-anchor="end" font-family="Arial, sans-serif" font-size="16">0.4</text>
<line x1="571.0" y1="85" x2="571.0" y2="690" stroke="#d9d2c8"/>
<text x="571.0" y="722" text-anchor="middle" font-family="Arial, sans-serif" font-size="16">133</text>
<line x1="105" y1="327.0" x2="1270" y2="327.0" stroke="#d9d2c8"/>
<text x="89" y="333.0" text-anchor="end" font-family="Arial, sans-serif" font-size="16">0.6</text>
<line x1="804.0" y1="85" x2="804.0" y2="690" stroke="#d9d2c8"/>
<text x="804.0" y="722" text-anchor="middle" font-family="Arial, sans-serif" font-size="16">200</text>
<line x1="105" y1="206.0" x2="1270" y2="206.0" stroke="#d9d2c8"/>
<text x="89" y="212.0" text-anchor="end" font-family="Arial, sans-serif" font-size="16">0.8</text>
<line x1="1037.0" y1="85" x2="1037.0" y2="690" stroke="#d9d2c8"/>
<text x="1037.0" y="722" text-anchor="middle" font-family="Arial, sans-serif" font-size="16">266</text>
<line x1="105" y1="85.0" x2="1270" y2="85.0" stroke="#d9d2c8"/>
<text x="89" y="91.0" text-anchor="end" font-family="Arial, sans-serif" font-size="16">1.0</text>
<line x1="1270.0" y1="85" x2="1270.0" y2="690" stroke="#d9d2c8"/>
<text x="1270.0" y="722" text-anchor="middle" font-family="Arial, sans-serif" font-size="16">333</text>
<polyline fill="none" stroke="#c74b3a" stroke-width="4" points="105.0,689.0 105.0,688.0 105.0,687.0 105.0,686.0 105.0,685.0 105.0,684.0 172.1,682.9 173.6,681.9 174.1,680.9 175.0,679.9 176.4,678.9 177.0,677.9 180.4,676.9 180.5,675.9 181.9,674.9 182.6,673.9 183.1,672.9 183.4,671.9 183.9,670.8 184.1,669.8 184.5,668.8 185.1,667.8 185.1,666.8 185.6,665.8 185.7,664.8 185.8,663.8 186.8,662.8 187.1,661.8 187.9,660.8 188.0,659.8 188.1,658.7 189.7,657.7 189.7,656.7 189.9,655.7 190.2,654.7 191.0,653.7 192.4,652.7 192.5,651.7 193.6,650.7 194.2,649.7 194.3,648.7 194.5,647.6 194.9,646.6 195.0,645.6 195.3,644.6 195.7,643.6 195.8,642.6 196.0,641.6 196.8,640.6 197.0,639.6 197.7,638.6 197.9,637.6 197.9,636.6 197.9,635.6 198.0,634.5 198.5,633.5 198.5,632.5 198.6,631.5 199.0,630.5 199.1,629.5 199.2,628.5 199.4,627.5 199.6,626.5 199.7,625.5 199.8,624.5 199.8,623.5 199.9,622.4 200.0,621.4 200.5,620.4 200.9,619.4 200.9,618.4 201.1,617.4 201.4,616.4 201.4,615.4 201.5,614.4 201.6,613.4 201.7,612.4 201.8,611.4 202.0,610.3 202.1,609.3 202.1,608.3 202.4,607.3 202.8,606.3 202.9,605.3 203.0,604.3 203.1,603.3 203.2,602.3 203.3,601.3 203.4,600.3 203.4,599.2 203.9,598.2 204.0,597.2 204.0,596.2 204.4,595.2 204.4,594.2 204.5,593.2 204.6,592.2 204.6,591.2 204.8,590.2 204.9,589.2 205.1,588.2 205.2,587.1 205.4,586.1 205.4,585.1 205.6,584.1 206.2,583.1 206.5,582.1 206.7,581.1 207.0,580.1 207.0,579.1 207.1,578.1 207.3,577.1 207.6,576.1 208.0,575.0 208.2,574.0 208.4,573.0 209.5,572.0 210.1,571.0 211.3,570.0 211.4,569.0 211.7,568.0 211.9,567.0 212.0,566.0 212.3,565.0 212.5,564.0 212.6,563.0 213.3,561.9 213.4,560.9 213.5,559.9 213.6,558.9 213.6,557.9 213.9,556.9 214.1,555.9 214.3,554.9 214.3,553.9 214.3,552.9 214.5,551.9 214.6,550.9 214.7,549.8 215.2,548.8 215.2,547.8 215.8,546.8 215.8,545.8 216.4,544.8 216.4,543.8 216.6,542.8 216.9,541.8 217.1,540.8 217.3,539.8 217.5,538.8 217.5,537.7 217.9,536.7 218.0,535.7 218.1,534.7 218.4,533.7 218.5,532.7 218.8,531.7 218.9,530.7 219.4,529.7 219.4,528.7 219.4,527.7 219.4,526.6 219.5,525.6 219.5,524.6 219.6,523.6 219.6,522.6 219.8,521.6 220.8,520.6 221.0,519.6 221.5,518.6 221.8,517.6 222.0,516.6 222.2,515.6 222.3,514.5 222.7,513.5 222.7,512.5 223.2,511.5 223.4,510.5 223.5,509.5 223.6,508.5 223.6,507.5 223.8,506.5 223.9,505.5 224.0,504.5 224.0,503.5 224.1,502.4 225.1,501.4 225.3,500.4 225.7,499.4 225.8,498.4 225.9,497.4 226.1,496.4 226.3,495.4 226.8,494.4 227.1,493.4 227.3,492.4 227.3,491.4 227.4,490.3 227.5,489.3 227.5,488.3 227.6,487.3 227.7,486.3 227.9,485.3 227.9,484.3 228.2,483.3 228.3,482.3 228.5,481.3 228.5,480.3 228.6,479.3 229.0,478.2 229.2,477.2 229.3,476.2 229.3,475.2 229.5,474.2 229.8,473.2 229.9,472.2 230.0,471.2 230.2,470.2 230.3,469.2 230.4,468.2 230.6,467.2 230.6,466.1 230.7,465.1 230.7,464.1 230.7,463.1 230.7,462.1 231.0,461.1 231.0,460.1 231.0,459.1 231.0,458.1 231.2,457.1 231.2,456.1 231.3,455.1 231.3,454.1 231.4,453.0 231.4,452.0 231.6,451.0 231.8,450.0 232.0,449.0 232.0,448.0 232.2,447.0 232.3,446.0 232.4,445.0 232.4,444.0 232.4,443.0 232.4,442.0 232.6,440.9 232.6,439.9 232.7,438.9 232.8,437.9 232.8,436.9 232.9,435.9 232.9,434.9 232.9,433.9 233.0,432.9 233.1,431.9 233.1,430.9 233.2,429.9 233.3,428.8 233.5,427.8 233.6,426.8 233.8,425.8 233.8,424.8 234.1,423.8 234.2,422.8 234.3,421.8 234.3,420.8 234.3,419.8 234.5,418.8 234.5,417.8 234.5,416.7 234.5,415.7 235.2,414.7 235.3,413.7 235.3,412.7 235.3,411.7 235.5,410.7 235.7,409.7 235.7,408.7 235.8,407.7 235.9,406.7 236.0,405.7 236.0,404.6 236.1,403.6 236.5,402.6 236.6,401.6 236.7,400.6 236.8,399.6 237.0,398.6 237.1,397.6 237.1,396.6 237.2,395.6 237.3,394.6 237.4,393.6 237.6,392.5 237.7,391.5 237.7,390.5 237.7,389.5 237.8,388.5 237.9,387.5 238.3,386.5 238.4,385.5 238.4,384.5 238.4,383.5 238.5,382.5 238.6,381.4 238.6,380.4 238.7,379.4 238.7,378.4 238.8,377.4 238.9,376.4 239.1,375.4 239.1,374.4 239.2,373.4 239.2,372.4 239.2,371.4 239.3,370.4 239.4,369.3 239.4,368.3 239.4,367.3 239.5,366.3 239.6,365.3 239.6,364.3 239.6,363.3 239.7,362.3 240.1,361.3 240.1,360.3 240.2,359.3 240.2,358.3 240.3,357.2 240.4,356.2 240.4,355.2 240.4,354.2 240.5,353.2 240.6,352.2 240.6,351.2 240.7,350.2 240.7,349.2 240.7,348.2 240.8,347.2 240.9,346.2 240.9,345.2 240.9,344.1 241.1,343.1 241.3,342.1 241.4,341.1 241.4,340.1 241.4,339.1 241.5,338.1 241.7,337.1 241.7,336.1 241.8,335.1 241.9,334.1 242.2,333.1 242.3,332.0 242.3,331.0 242.4,330.0 242.5,329.0 242.6,328.0 242.6,327.0 242.6,326.0 242.7,325.0 242.7,324.0 242.7,323.0 242.8,322.0 242.9,321.0 243.0,319.9 243.2,318.9 243.2,317.9 243.3,316.9 243.3,315.9 243.3,314.9 243.5,313.9 243.6,312.9 243.8,311.9 243.9,310.9 243.9,309.9 244.1,308.9 244.1,307.8 244.2,306.8 244.4,305.8 244.4,304.8 244.6,303.8 245.0,302.8 245.0,301.8 245.1,300.8 245.1,299.8 245.1,298.8 245.1,297.8 245.2,296.8 245.3,295.7 245.3,294.7 245.4,293.7 245.5,292.7 245.7,291.7 245.7,290.7 245.7,289.7 245.7,288.7 245.7,287.7 246.0,286.7 246.2,285.7 246.2,284.6 246.5,283.6 246.6,282.6 246.7,281.6 246.8,280.6 246.8,279.6 246.8,278.6 246.8,277.6 246.8,276.6 247.3,275.6 247.3,274.6 247.5,273.6 247.5,272.6 247.6,271.5 247.7,270.5 247.7,269.5 247.8,268.5 247.8,267.5 247.8,266.5 248.0,265.5 248.3,264.5 248.4,263.5 248.7,262.5 248.8,261.5 248.8,260.5 248.8,259.4 248.9,258.4 249.1,257.4 249.1,256.4 249.3,255.4 249.3,254.4 249.4,253.4 249.6,252.4 249.6,251.4 249.6,250.4 249.7,249.4 249.9,248.4 249.9,247.3 250.0,246.3 250.1,245.3 250.2,244.3 250.4,243.3 250.4,242.3 250.4,241.3 250.5,240.3 250.6,239.3 250.8,238.3 250.9,237.3 251.0,236.2 251.2,235.2 251.3,234.2 251.3,233.2 251.4,232.2 251.4,231.2 251.5,230.2 251.5,229.2 251.7,228.2 251.8,227.2 252.1,226.2 252.1,225.2 252.2,224.1 252.4,223.1 252.4,222.1 252.8,221.1 252.9,220.1 252.9,219.1 252.9,218.1 252.9,217.1 253.0,216.1 253.4,215.1 253.4,214.1 253.5,213.1 253.6,212.0 253.7,211.0 253.8,210.0 253.9,209.0 254.2,208.0 254.2,207.0 254.3,206.0 254.3,205.0 254.8,204.0 254.8,203.0 254.8,202.0 255.2,201.0 255.5,199.9 255.7,198.9 255.7,197.9 255.8,196.9 255.9,195.9 256.2,194.9 256.2,193.9 256.4,192.9 257.2,191.9 257.2,190.9 257.6,189.9 257.6,188.9 257.7,187.9 257.8,186.8 257.9,185.8 258.0,184.8 258.1,183.8 258.2,182.8 258.3,181.8 258.6,180.8 258.7,179.8 258.8,178.8 258.9,177.8 258.9,176.8 259.1,175.8 259.2,174.7 259.3,173.7 259.4,172.7 259.8,171.7 259.8,170.7 259.9,169.7 260.4,168.7 260.6,167.7 260.9,166.7 261.2,165.7 262.0,164.7 262.2,163.7 262.5,162.6 262.6,161.6 263.0,160.6 263.0,159.6 263.2,158.6 263.3,157.6 264.2,156.6 264.7,155.6 264.7,154.6 265.0,153.6 265.2,152.6 265.6,151.6 266.3,150.5 266.4,149.5 266.5,148.5 266.8,147.5 267.4,146.5 267.7,145.5 269.4,144.5 269.8,143.5 269.8,142.5 269.9,141.5 270.0,140.5 270.1,139.4 270.3,138.4 270.4,137.4 271.0,136.4 272.3,135.4 272.4,134.4 272.9,133.4 273.6,132.4 274.3,131.4 274.9,130.4 275.7,129.4 275.7,128.4 275.9,127.3 277.0,126.3 277.5,125.3 278.0,124.3 278.5,123.3 278.7,122.3 279.4,121.3 279.9,120.3 281.4,119.3 282.1,118.3 282.4,117.3 282.5,116.3 282.6,115.3 284.6,114.2 285.0,113.2 285.3,112.2 287.1,111.2 289.6,110.2 290.5,109.2 290.7,108.2 290.7,107.2 291.4,106.2 291.9,105.2 297.0,104.2 304.1,103.2 304.7,102.1 317.1,101.1 320.3,100.1 333.2,99.1 343.9,98.1 355.4,97.1 408.3,96.1 413.4,95.1 414.3,94.1 420.2,93.1 429.3,92.1 429.7,91.1 489.8,90.0 531.1,89.0 828.9,88.0 1023.9,87.0 1046.2,86.0 1060.6,85.0"/>
<polyline fill="none" stroke="#e79b37" stroke-width="4" points="105.0,689.0 105.0,688.0 105.0,687.0 105.0,686.0 105.0,685.0 105.0,684.0 172.1,682.9 173.6,681.9 177.7,680.9 180.0,679.9 180.4,678.9 180.8,677.9 180.9,676.9 182.0,675.9 183.1,674.9 183.8,673.9 184.1,672.9 184.2,671.9 184.4,670.8 185.1,669.8 185.1,668.8 185.4,667.8 185.7,666.8 186.7,665.8 187.3,664.8 187.7,663.8 187.8,662.8 188.3,661.8 189.1,660.8 189.7,659.8 190.7,658.7 190.8,657.7 191.8,656.7 192.2,655.7 192.5,654.7 194.4,653.7 195.8,652.7 195.9,651.7 195.9,650.7 196.3,649.7 196.6,648.7 196.6,647.6 196.7,646.6 197.0,645.6 198.1,644.6 198.3,643.6 198.8,642.6 198.9,641.6 199.2,640.6 199.4,639.6 199.4,638.6 200.4,637.6 200.6,636.6 200.7,635.6 201.2,634.5 201.4,633.5 201.4,632.5 201.7,631.5 202.2,630.5 202.4,629.5 202.4,628.5 202.5,627.5 202.9,626.5 203.0,625.5 203.0,624.5 203.8,623.5 204.0,622.4 204.4,621.4 205.2,620.4 205.7,619.4 205.9,618.4 206.1,617.4 206.2,616.4 206.4,615.4 206.6,614.4 206.7,613.4 206.7,612.4 206.8,611.4 206.9,610.3 207.1,609.3 207.2,608.3 207.5,607.3 207.8,606.3 207.9,605.3 208.1,604.3 208.4,603.3 208.6,602.3 208.8,601.3 209.1,600.3 209.2,599.2 209.5,598.2 209.9,597.2 209.9,596.2 210.2,595.2 210.5,594.2 210.7,593.2 211.0,592.2 211.9,591.2 212.1,590.2 212.2,589.2 212.3,588.2 213.2,587.1 213.3,586.1 213.3,585.1 213.4,584.1 213.4,583.1 213.9,582.1 214.1,581.1 214.3,580.1 214.8,579.1 215.1,578.1 215.1,577.1 215.2,576.1 215.3,575.0 215.8,574.0 216.6,573.0 216.8,572.0 217.0,571.0 217.1,570.0 217.2,569.0 217.6,568.0 217.9,567.0 218.0,566.0 218.4,565.0 218.5,564.0 219.3,563.0 219.4,561.9 219.9,560.9 220.2,559.9 220.4,558.9 220.5,557.9 221.2,556.9 221.5,555.9 221.7,554.9 221.8,553.9 222.2,552.9 222.7,551.9 223.3,550.9 223.3,549.8 223.4,548.8 223.7,547.8 223.7,546.8 224.5,545.8 224.6,544.8 224.8,543.8 224.8,542.8 225.5,541.8 227.1,540.8 227.1,539.8 227.4,538.8 227.5,537.7 227.6,536.7 227.8,535.7 228.4,534.7 228.5,533.7 229.0,532.7 229.1,531.7 229.1,530.7 229.1,529.7 229.3,528.7 230.1,527.7 230.1,526.6 230.2,525.6 230.9,524.6 231.0,523.6 231.1,522.6 231.1,521.6 231.2,520.6 231.2,519.6 231.2,518.6 231.2,517.6 231.3,516.6 231.4,515.6 231.9,514.5 232.2,513.5 232.2,512.5 232.4,511.5 232.9,510.5 233.2,509.5 233.3,508.5 233.6,507.5 233.7,506.5 233.8,505.5 233.9,504.5 234.1,503.5 234.9,502.4 235.0,501.4 235.1,500.4 235.6,499.4 235.6,498.4 236.0,497.4 236.1,496.4 236.4,495.4 236.4,494.4 236.6,493.4 236.8,492.4 236.8,491.4 236.9,490.3 237.3,489.3 237.7,488.3 237.7,487.3 237.8,486.3 237.8,485.3 237.8,484.3 237.9,483.3 237.9,482.3 237.9,481.3 238.3,480.3 238.7,479.3 239.3,478.2 239.4,477.2 239.6,476.2 239.6,475.2 239.7,474.2 240.3,473.2 240.8,472.2 241.1,471.2 241.5,470.2 241.7,469.2 241.9,468.2 242.2,467.2 242.3,466.1 242.4,465.1 242.5,464.1 242.6,463.1 242.7,462.1 242.8,461.1 242.8,460.1 242.9,459.1 243.2,458.1 243.2,457.1 243.9,456.1 244.0,455.1 244.6,454.1 244.8,453.0 245.0,452.0 245.0,451.0 245.4,450.0 245.5,449.0 245.7,448.0 245.8,447.0 246.0,446.0 246.0,445.0 246.1,444.0 246.2,443.0 246.4,442.0 246.5,440.9 246.6,439.9 247.1,438.9 247.1,437.9 247.1,436.9 247.4,435.9 247.5,434.9 247.6,433.9 247.7,432.9 247.7,431.9 247.9,430.9 247.9,429.9 248.1,428.8 248.4,427.8 248.7,426.8 248.8,425.8 248.9,424.8 249.2,423.8 249.2,422.8 249.2,421.8 249.2,420.8 249.4,419.8 249.4,418.8 249.5,417.8 249.6,416.7 249.7,415.7 249.8,414.7 249.9,413.7 250.1,412.7 250.2,411.7 250.2,410.7 250.3,409.7 250.3,408.7 250.6,407.7 250.6,406.7 250.9,405.7 250.9,404.6 250.9,403.6 251.0,402.6 251.2,401.6 251.2,400.6 251.3,399.6 251.3,398.6 251.5,397.6 252.0,396.6 252.0,395.6 252.1,394.6 252.2,393.6 252.3,392.5 252.5,391.5 252.5,390.5 252.6,389.5 252.7,388.5 252.7,387.5 252.9,386.5 253.0,385.5 253.1,384.5 253.2,383.5 253.4,382.5 253.4,381.4 253.6,380.4 253.7,379.4 254.0,378.4 254.0,377.4 254.1,376.4 254.2,375.4 254.5,374.4 254.5,373.4 254.8,372.4 254.8,371.4 255.2,370.4 255.5,369.3 255.5,368.3 255.6,367.3 255.7,366.3 255.8,365.3 255.8,364.3 255.9,363.3 256.0,362.3 256.1,361.3 256.2,360.3 256.2,359.3 256.5,358.3 256.6,357.2 256.7,356.2 256.9,355.2 256.9,354.2 256.9,353.2 257.2,352.2 257.5,351.2 257.7,350.2 257.8,349.2 258.0,348.2 258.0,347.2 258.1,346.2 258.1,345.2 258.3,344.1 258.3,343.1 258.3,342.1 258.3,341.1 258.3,340.1 258.4,339.1 258.4,338.1 258.4,337.1 258.5,336.1 258.5,335.1 258.6,334.1 259.0,333.1 259.1,332.0 259.3,331.0 259.3,330.0 259.5,329.0 259.5,328.0 259.5,327.0 260.2,326.0 260.2,325.0 260.4,324.0 260.5,323.0 260.6,322.0 260.9,321.0 260.9,319.9 261.1,318.9 261.1,317.9 261.1,316.9 261.1,315.9 261.1,314.9 261.2,313.9 261.2,312.9 261.2,311.9 261.2,310.9 261.3,309.9 261.3,308.9 261.4,307.8 261.4,306.8 261.4,305.8 261.5,304.8 261.6,303.8 261.6,302.8 261.6,301.8 261.8,300.8 261.9,299.8 262.0,298.8 262.2,297.8 262.4,296.8 262.5,295.7 262.7,294.7 262.8,293.7 262.9,292.7 262.9,291.7 262.9,290.7 263.0,289.7 263.1,288.7 263.1,287.7 263.3,286.7 263.5,285.7 263.7,284.6 263.7,283.6 263.8,282.6 263.8,281.6 263.8,280.6 263.9,279.6 264.1,278.6 264.6,277.6 264.9,276.6 265.0,275.6 265.1,274.6 265.1,273.6 265.1,272.6 265.2,271.5 265.3,270.5 265.3,269.5 265.7,268.5 265.7,267.5 265.8,266.5 265.9,265.5 265.9,264.5 266.0,263.5 266.0,262.5 266.1,261.5 266.2,260.5 266.2,259.4 266.3,258.4 266.3,257.4 266.4,256.4 266.4,255.4 266.5,254.4 266.5,253.4 266.7,252.4 266.8,251.4 266.9,250.4 267.0,249.4 267.2,248.4 267.3,247.3 267.5,246.3 267.8,245.3 267.9,244.3 268.4,243.3 268.5,242.3 269.0,241.3 269.1,240.3 269.1,239.3 269.3,238.3 269.7,237.3 269.8,236.2 269.8,235.2 269.8,234.2 270.0,233.2 270.0,232.2 270.2,231.2 270.4,230.2 270.9,229.2 270.9,228.2 271.0,227.2 271.0,226.2 271.0,225.2 271.1,224.1 271.1,223.1 271.2,222.1 271.2,221.1 271.3,220.1 271.6,219.1 271.7,218.1 271.9,217.1 272.2,216.1 272.3,215.1 272.4,214.1 272.5,213.1 272.6,212.0 272.8,211.0 272.9,210.0 273.2,209.0 273.5,208.0 273.5,207.0 273.6,206.0 273.7,205.0 273.8,204.0 273.9,203.0 274.1,202.0 274.4,201.0 274.6,199.9 274.7,198.9 275.1,197.9 275.6,196.9 275.6,195.9 275.8,194.9 276.2,193.9 276.9,192.9 276.9,191.9 277.0,190.9 277.1,189.9 277.3,188.9 277.3,187.9 277.8,186.8 277.8,185.8 277.8,184.8 277.9,183.8 278.0,182.8 278.6,181.8 278.7,180.8 279.0,179.8 279.0,178.8 279.0,177.8 279.2,176.8 279.5,175.8 279.6,174.7 279.9,173.7 280.0,172.7 280.1,171.7 280.4,170.7 280.6,169.7 280.7,168.7 280.8,167.7 281.1,166.7 281.4,165.7 281.9,164.7 282.2,163.7 282.4,162.6 282.8,161.6 282.8,160.6 283.4,159.6 283.8,158.6 284.3,157.6 284.4,156.6 284.6,155.6 284.9,154.6 285.0,153.6 285.3,152.6 285.6,151.6 285.6,150.5 285.7,149.5 285.9,148.5 286.0,147.5 286.2,146.5 286.3,145.5 286.3,144.5 286.3,143.5 286.4,142.5 287.7,141.5 287.8,140.5 288.2,139.4 288.4,138.4 289.9,137.4 290.0,136.4 290.0,135.4 290.5,134.4 290.6,133.4 290.7,132.4 290.7,131.4 290.8,130.4 290.8,129.4 293.9,128.4 294.4,127.3 294.8,126.3 297.0,125.3 297.5,124.3 298.5,123.3 298.6,122.3 299.3,121.3 299.7,120.3 300.0,119.3 300.2,118.3 300.6,117.3 302.9,116.3 305.3,115.3 305.4,114.2 311.0,113.2 313.4,112.2 313.4,111.2 313.5,110.2 314.0,109.2 320.3,108.2 320.7,107.2 331.8,106.2 345.2,105.2 349.4,104.2 351.2,103.2 356.7,102.1 388.9,101.1 408.3,100.1 414.3,99.1 420.5,98.1 434.9,97.1 489.8,96.1 534.3,95.1 578.7,94.1 585.3,93.1 595.8,92.1 730.3,91.1 750.4,90.0 873.2,89.0 937.8,88.0 993.9,87.0 1046.2,86.0 1054.6,85.0"/>
<polyline fill="none" stroke="#865bd6" stroke-width="4" points="105.0,689.0 105.0,688.0 105.0,687.0 105.0,686.0 105.0,685.0 105.0,684.0 172.1,682.9 173.6,681.9 178.4,680.9 179.0,679.9 179.0,678.9 180.4,677.9 182.0,676.9 182.1,675.9 184.0,674.9 184.1,673.9 184.6,672.9 185.0,671.9 185.1,670.8 185.4,669.8 185.6,668.8 185.7,667.8 185.8,666.8 186.9,665.8 187.1,664.8 187.3,663.8 187.5,662.8 188.2,661.8 188.4,660.8 188.7,659.8 188.8,658.7 189.0,657.7 189.7,656.7 190.2,655.7 191.0,654.7 191.2,653.7 191.5,652.7 191.8,651.7 192.5,650.7 193.3,649.7 193.5,648.7 193.7,647.6 193.9,646.6 193.9,645.6 193.9,644.6 194.0,643.6 194.3,642.6 194.3,641.6 194.5,640.6 194.6,639.6 195.1,638.6 195.5,637.6 195.8,636.6 195.9,635.6 196.2,634.5 196.5,633.5 196.5,632.5 196.7,631.5 196.8,630.5 197.3,629.5 197.4,628.5 197.8,627.5 197.9,626.5 198.2,625.5 198.6,624.5 198.6,623.5 198.9,622.4 199.2,621.4 200.0,620.4 200.2,619.4 200.4,618.4 200.6,617.4 200.8,616.4 201.4,615.4 201.7,614.4 201.8,613.4 201.9,612.4 202.4,611.4 202.5,610.3 202.5,609.3 202.5,608.3 202.7,607.3 202.8,606.3 202.9,605.3 202.9,604.3 202.9,603.3 203.6,602.3 203.7,601.3 203.7,600.3 203.8,599.2 204.0,598.2 204.0,597.2 204.1,596.2 204.4,595.2 204.4,594.2 204.6,593.2 204.9,592.2 205.0,591.2 205.2,590.2 205.2,589.2 205.5,588.2 205.5,587.1 205.6,586.1 205.9,585.1 205.9,584.1 206.0,583.1 206.3,582.1 206.3,581.1 206.6,580.1 206.8,579.1 207.3,578.1 207.5,577.1 207.8,576.1 207.9,575.0 208.4,574.0 208.5,573.0 208.6,572.0 208.9,571.0 209.1,570.0 210.2,569.0 210.6,568.0 210.9,567.0 211.1,566.0 211.4,565.0 211.4,564.0 211.6,563.0 211.8,561.9 212.1,560.9 212.3,559.9 212.3,558.9 212.7,557.9 212.9,556.9 213.4,555.9 213.4,554.9 213.6,553.9 214.3,552.9 214.4,551.9 215.2,550.9 215.7,549.8 215.8,548.8 216.1,547.8 216.5,546.8 216.7,545.8 216.9,544.8 217.6,543.8 218.3,542.8 218.3,541.8 218.4,540.8 218.5,539.8 218.5,538.8 219.2,537.7 219.3,536.7 219.6,535.7 219.6,534.7 219.7,533.7 219.9,532.7 220.2,531.7 220.3,530.7 220.4,529.7 220.9,528.7 221.2,527.7 221.2,526.6 221.3,525.6 221.4,524.6 221.8,523.6 221.8,522.6 222.0,521.6 222.1,520.6 222.5,519.6 222.5,518.6 222.6,517.6 222.7,516.6 223.0,515.6 223.1,514.5 223.2,513.5 223.4,512.5 223.4,511.5 224.1,510.5 224.2,509.5 224.4,508.5 224.5,507.5 224.6,506.5 225.3,505.5 225.5,504.5 225.7,503.5 226.4,502.4 226.4,501.4 226.5,500.4 226.6,499.4 226.7,498.4 226.7,497.4 226.8,496.4 227.1,495.4 227.2,494.4 227.2,493.4 227.3,492.4 227.4,491.4 227.5,490.3 227.7,489.3 227.9,488.3 228.1,487.3 228.3,486.3 228.8,485.3 228.9,484.3 229.3,483.3 229.4,482.3 229.5,481.3 229.6,480.3 229.7,479.3 229.7,478.2 229.9,477.2 229.9,476.2 230.0,475.2 230.0,474.2 230.3,473.2 230.9,472.2 230.9,471.2 231.0,470.2 231.1,469.2 231.1,468.2 231.2,467.2 231.2,466.1 231.2,465.1 231.3,464.1 231.4,463.1 231.4,462.1 231.4,461.1 231.5,460.1 231.6,459.1 231.6,458.1 231.7,457.1 232.0,456.1 232.2,455.1 232.4,454.1 232.6,453.0 232.8,452.0 232.8,451.0 232.9,450.0 232.9,449.0 233.0,448.0 233.1,447.0 233.3,446.0 233.3,445.0 233.3,444.0 233.3,443.0 233.4,442.0 233.5,440.9 233.6,439.9 234.2,438.9 234.3,437.9 234.3,436.9 234.3,435.9 234.4,434.9 234.4,433.9 234.4,432.9 234.7,431.9 235.0,430.9 235.2,429.9 235.5,428.8 235.5,427.8 235.6,426.8 235.6,425.8 235.8,424.8 235.8,423.8 235.8,422.8 235.8,421.8 236.0,420.8 236.0,419.8 236.0,418.8 236.1,417.8 236.1,416.7 236.5,415.7 236.5,414.7 236.5,413.7 236.7,412.7 236.7,411.7 236.9,410.7 237.2,409.7 237.3,408.7 237.3,407.7 237.3,406.7 237.3,405.7 237.6,404.6 237.6,403.6 237.7,402.6 237.8,401.6 237.9,400.6 237.9,399.6 237.9,398.6 238.0,397.6 238.4,396.6 238.5,395.6 238.5,394.6 238.6,393.6 238.8,392.5 238.9,391.5 239.1,390.5 239.1,389.5 239.2,388.5 239.3,387.5 239.4,386.5 239.4,385.5 239.6,384.5 239.7,383.5 239.7,382.5 239.8,381.4 239.8,380.4 239.9,379.4 240.1,378.4 240.2,377.4 240.2,376.4 240.4,375.4 240.4,374.4 240.4,373.4 240.5,372.4 240.7,371.4 241.0,370.4 241.1,369.3 241.2,368.3 241.3,367.3 241.3,366.3 241.6,365.3 241.9,364.3 242.1,363.3 242.1,362.3 242.1,361.3 242.2,360.3 242.3,359.3 242.4,358.3 242.6,357.2 242.6,356.2 242.6,355.2 242.7,354.2 242.7,353.2 242.7,352.2 242.7,351.2 242.7,350.2 242.8,349.2 243.1,348.2 243.1,347.2 243.2,346.2 243.3,345.2 243.3,344.1 243.4,343.1 243.4,342.1 243.5,341.1 243.5,340.1 243.5,339.1 243.7,338.1 243.7,337.1 243.8,336.1 243.9,335.1 244.0,334.1 244.0,333.1 244.1,332.0 244.1,331.0 244.1,330.0 244.1,329.0 244.2,328.0 244.4,327.0 244.6,326.0 244.7,325.0 244.7,324.0 244.8,323.0 245.1,322.0 245.2,321.0 245.3,319.9 245.4,318.9 245.4,317.9 245.4,316.9 245.4,315.9 245.5,314.9 245.5,313.9 245.6,312.9 245.8,311.9 245.9,310.9 246.0,309.9 246.0,308.9 246.0,307.8 246.1,306.8 246.3,305.8 246.4,304.8 246.6,303.8 246.8,302.8 247.0,301.8 247.1,300.8 247.3,299.8 247.4,298.8 247.7,297.8 247.7,296.8 247.8,295.7 247.8,294.7 247.9,293.7 248.0,292.7 248.1,291.7 248.1,290.7 248.3,289.7 248.3,288.7 248.3,287.7 248.3,286.7 248.4,285.7 248.4,284.6 248.5,283.6 248.5,282.6 248.5,281.6 248.7,280.6 248.8,279.6 248.8,278.6 249.0,277.6 249.0,276.6 249.2,275.6 249.2,274.6 249.4,273.6 249.4,272.6 249.6,271.5 249.6,270.5 249.7,269.5 249.7,268.5 249.7,267.5 249.8,266.5 250.2,265.5 250.2,264.5 250.2,263.5 250.2,262.5 250.2,261.5 250.3,260.5 250.3,259.4 250.4,258.4 250.5,257.4 250.5,256.4 250.6,255.4 250.6,254.4 250.6,253.4 251.0,252.4 251.1,251.4 251.2,250.4 251.4,249.4 251.5,248.4 251.6,247.3 251.8,246.3 251.8,245.3 251.8,244.3 252.0,243.3 252.1,242.3 252.1,241.3 252.3,240.3 252.3,239.3 252.3,238.3 252.5,237.3 252.6,236.2 252.6,235.2 252.8,234.2 253.0,233.2 253.3,232.2 253.4,231.2 253.4,230.2 253.5,229.2 253.7,228.2 253.7,227.2 253.8,226.2 254.0,225.2 254.1,224.1 254.2,223.1 254.2,222.1 254.3,221.1 254.3,220.1 254.3,219.1 254.4,218.1 254.4,217.1 254.6,216.1 254.7,215.1 254.9,214.1 255.0,213.1 255.3,212.0 255.3,211.0 255.5,210.0 255.5,209.0 255.7,208.0 256.0,207.0 256.0,206.0 256.1,205.0 256.1,204.0 256.5,203.0 256.5,202.0 256.6,201.0 256.6,199.9 256.7,198.9 256.8,197.9 257.2,196.9 257.3,195.9 257.8,194.9 257.9,193.9 258.0,192.9 258.0,191.9 258.0,190.9 258.6,189.9 258.7,188.9 258.7,187.9 258.8,186.8 258.8,185.8 258.8,184.8 258.9,183.8 258.9,182.8 259.1,181.8 259.1,180.8 259.2,179.8 259.3,178.8 259.4,177.8 259.5,176.8 259.8,175.8 260.2,174.7 260.3,173.7 260.7,172.7 260.8,171.7 260.9,170.7 260.9,169.7 261.3,168.7 261.4,167.7 261.5,166.7 261.8,165.7 262.0,164.7 262.0,163.7 262.2,162.6 262.5,161.6 262.6,160.6 262.7,159.6 262.8,158.6 263.1,157.6 263.1,156.6 263.2,155.6 263.2,154.6 263.2,153.6 263.6,152.6 264.1,151.6 265.1,150.5 265.4,149.5 265.8,148.5 265.9,147.5 266.8,146.5 267.0,145.5 268.1,144.5 268.2,143.5 268.9,142.5 269.4,141.5 269.8,140.5 269.8,139.4 270.2,138.4 271.0,137.4 271.0,136.4 271.2,135.4 271.6,134.4 272.5,133.4 272.6,132.4 272.9,131.4 273.2,130.4 273.9,129.4 274.2,128.4 274.3,127.3 275.9,126.3 276.1,125.3 277.1,124.3 277.3,123.3 277.8,122.3 278.7,121.3 278.8,120.3 279.1,119.3 279.7,118.3 280.2,117.3 282.4,116.3 283.1,115.3 283.8,114.2 285.6,113.2 288.1,112.2 290.1,111.2 290.2,110.2 290.5,109.2 291.2,108.2 292.9,107.2 294.8,106.2 295.4,105.2 296.4,104.2 297.0,103.2 303.8,102.1 308.0,101.1 320.3,100.1 326.9,99.1 334.0,98.1 335.3,97.1 372.4,96.1 388.9,95.1 394.8,94.1 408.3,93.1 414.3,92.1 489.8,91.1 490.0,90.0 500.3,89.0 674.5,88.0 717.4,87.0 1023.9,86.0 1046.2,85.0"/>
<polyline fill="none" stroke="#e0459b" stroke-width="4" points="105.0,689.0 105.0,688.0 105.0,687.0 105.0,686.0 105.0,685.0 105.0,684.0 178.2,682.9 178.9,681.9 181.2,680.9 193.8,679.9 195.4,678.9 199.4,677.9 200.7,676.9 200.9,675.9 203.3,674.9 203.3,673.9 203.4,672.9 204.2,671.9 205.4,670.8 208.0,669.8 211.2,668.8 211.9,667.8 212.4,666.8 213.6,665.8 213.8,664.8 214.7,663.8 215.0,662.8 217.0,661.8 217.6,660.8 217.7,659.8 217.8,658.7 218.0,657.7 218.7,656.7 219.1,655.7 219.7,654.7 220.9,653.7 221.1,652.7 222.5,651.7 223.2,650.7 223.7,649.7 223.8,648.7 223.8,647.6 224.9,646.6 225.0,645.6 225.2,644.6 225.4,643.6 226.1,642.6 226.2,641.6 227.6,640.6 227.6,639.6 228.0,638.6 228.8,637.6 231.4,636.6 231.8,635.6 231.8,634.5 232.2,633.5 232.6,632.5 232.9,631.5 233.7,630.5 234.5,629.5 234.7,628.5 234.7,627.5 235.3,626.5 235.4,625.5 236.0,624.5 237.8,623.5 238.1,622.4 238.3,621.4 238.7,620.4 238.7,619.4 238.9,618.4 238.9,617.4 240.0,616.4 241.0,615.4 241.2,614.4 242.3,613.4 242.6,612.4 243.3,611.4 243.8,610.3 244.1,609.3 244.1,608.3 245.2,607.3 245.2,606.3 245.4,605.3 245.9,604.3 246.2,603.3 247.8,602.3 247.9,601.3 248.6,600.3 249.3,599.2 249.3,598.2 249.5,597.2 250.0,596.2 250.1,595.2 250.8,594.2 251.7,593.2 252.3,592.2 252.6,591.2 253.0,590.2 254.0,589.2 255.4,588.2 255.4,587.1 256.0,586.1 257.0,585.1 257.0,584.1 257.2,583.1 257.4,582.1 257.9,581.1 258.0,580.1 259.7,579.1 260.3,578.1 260.7,577.1 260.8,576.1 263.0,575.0 263.0,574.0 263.3,573.0 264.1,572.0 265.7,571.0 265.7,570.0 265.8,569.0 266.1,568.0 266.9,567.0 267.5,566.0 267.8,565.0 268.1,564.0 268.9,563.0 269.2,561.9 269.4,560.9 269.5,559.9 270.8,558.9 271.4,557.9 271.4,556.9 271.8,555.9 272.2,554.9 272.4,553.9 272.8,552.9 273.5,551.9 274.2,550.9 274.2,549.8 274.2,548.8 274.4,547.8 274.4,546.8 274.7,545.8 274.8,544.8 275.0,543.8 275.2,542.8 275.2,541.8 275.6,540.8 276.2,539.8 276.7,538.8 277.6,537.7 277.8,536.7 277.9,535.7 278.3,534.7 278.5,533.7 279.4,532.7 279.7,531.7 280.1,530.7 280.3,529.7 280.3,528.7 280.9,527.7 282.0,526.6 282.4,525.6 282.4,524.6 282.7,523.6 282.7,522.6 282.9,521.6 283.7,520.6 283.8,519.6 283.9,518.6 284.1,517.6 285.4,516.6 285.8,515.6 285.9,514.5 286.3,513.5 287.2,512.5 287.4,511.5 288.7,510.5 288.8,509.5 289.0,508.5 289.0,507.5 289.7,506.5 289.9,505.5 289.9,504.5 289.9,503.5 290.2,502.4 290.3,501.4 290.4,500.4 290.5,499.4 291.4,498.4 291.7,497.4 292.0,496.4 293.0,495.4 293.8,494.4 294.3,493.4 294.3,492.4 295.0,491.4 296.4,490.3 297.0,489.3 297.1,488.3 297.1,487.3 297.4,486.3 297.8,485.3 298.0,484.3 298.0,483.3 299.0,482.3 299.8,481.3 300.5,480.3 302.3,479.3 302.7,478.2 302.8,477.2 303.4,476.2 303.7,475.2 304.2,474.2 304.6,473.2 305.2,472.2 305.7,471.2 307.1,470.2 307.5,469.2 307.6,468.2 307.9,467.2 308.0,466.1 308.2,465.1 308.6,464.1 309.0,463.1 309.7,462.1 310.2,461.1 311.2,460.1 311.3,459.1 311.6,458.1 311.7,457.1 312.2,456.1 312.6,455.1 312.9,454.1 313.0,453.0 313.3,452.0 313.5,451.0 313.8,450.0 314.1,449.0 314.2,448.0 314.3,447.0 314.4,446.0 315.7,445.0 315.7,444.0 315.8,443.0 316.2,442.0 316.3,440.9 316.9,439.9 317.2,438.9 318.1,437.9 318.5,436.9 318.6,435.9 318.8,434.9 318.9,433.9 318.9,432.9 319.1,431.9 319.8,430.9 320.1,429.9 320.5,428.8 320.6,427.8 322.6,426.8 323.5,425.8 323.9,424.8 324.4,423.8 324.6,422.8 324.9,421.8 326.1,420.8 326.2,419.8 326.7,418.8 326.9,417.8 327.2,416.7 327.2,415.7 327.3,414.7 327.3,413.7 328.0,412.7 329.5,411.7 329.5,410.7 329.7,409.7 330.2,408.7 331.5,407.7 332.3,406.7 332.8,405.7 333.6,404.6 333.9,403.6 334.1,402.6 334.5,401.6 334.8,400.6 335.1,399.6 335.2,398.6 336.7,397.6 337.3,396.6 337.3,395.6 339.6,394.6 340.6,393.6 340.8,392.5 340.8,391.5 341.0,390.5 341.2,389.5 341.5,388.5 341.9,387.5 342.8,386.5 343.3,385.5 343.3,384.5 343.7,383.5 344.1,382.5 344.2,381.4 344.2,380.4 345.7,379.4 346.4,378.4 346.7,377.4 346.9,376.4 347.0,375.4 347.1,374.4 348.2,373.4 348.2,372.4 348.2,371.4 348.3,370.4 348.7,369.3 348.7,368.3 348.9,367.3 349.3,366.3 349.5,365.3 349.7,364.3 349.8,363.3 351.5,362.3 351.6,361.3 352.4,360.3 353.0,359.3 353.2,358.3 353.6,357.2 353.7,356.2 354.4,355.2 354.6,354.2 354.8,353.2 355.5,352.2 356.2,351.2 356.6,350.2 356.6,349.2 357.1,348.2 358.5,347.2 359.4,346.2 359.4,345.2 360.7,344.1 362.1,343.1 364.0,342.1 365.2,341.1 365.3,340.1 365.7,339.1 365.7,338.1 365.8,337.1 366.1,336.1 366.4,335.1 366.7,334.1 367.3,333.1 367.5,332.0 368.2,331.0 368.7,330.0 369.2,329.0 369.6,328.0 370.0,327.0 370.3,326.0 370.3,325.0 370.7,324.0 371.1,323.0 371.4,322.0 373.0,321.0 373.5,319.9 374.9,318.9 375.3,317.9 376.7,316.9 377.2,315.9 377.3,314.9 377.8,313.9 378.0,312.9 378.1,311.9 378.5,310.9 378.5,309.9 379.4,308.9 379.5,307.8 379.8,306.8 380.5,305.8 380.6,304.8 381.2,303.8 381.4,302.8 382.1,301.8 382.1,300.8 382.8,299.8 383.3,298.8 383.4,297.8 383.8,296.8 384.1,295.7 384.5,294.7 384.8,293.7 385.9,292.7 386.1,291.7 386.7,290.7 386.7,289.7 387.4,288.7 388.2,287.7 388.4,286.7 389.4,285.7 390.2,284.6 391.6,283.6 391.8,282.6 391.8,281.6 393.5,280.6 393.9,279.6 393.9,278.6 394.1,277.6 394.4,276.6 394.7,275.6 394.9,274.6 395.8,273.6 396.4,272.6 396.4,271.5 397.3,270.5 398.1,269.5 398.5,268.5 398.9,267.5 399.3,266.5 399.6,265.5 400.5,264.5 400.8,263.5 402.0,262.5 402.7,261.5 403.1,260.5 404.1,259.4 404.1,258.4 404.9,257.4 405.3,256.4 405.5,255.4 406.8,254.4 406.8,253.4 406.9,252.4 407.7,251.4 407.8,250.4 408.4,249.4 409.1,248.4 409.8,247.3 409.8,246.3 410.6,245.3 411.7,244.3 412.0,243.3 412.3,242.3 413.7,241.3 414.8,240.3 414.9,239.3 415.3,238.3 415.5,237.3 415.8,236.2 415.9,235.2 417.1,234.2 417.5,233.2 418.0,232.2 419.0,231.2 419.1,230.2 419.5,229.2 420.2,228.2 420.5,227.2 420.7,226.2 420.7,225.2 421.7,224.1 422.5,223.1 422.8,222.1 423.0,221.1 423.0,220.1 423.3,219.1 423.5,218.1 424.6,217.1 425.0,216.1 425.3,215.1 425.3,214.1 426.1,213.1 427.9,212.0 428.0,211.0 428.4,210.0 428.6,209.0 428.6,208.0 428.8,207.0 428.9,206.0 430.5,205.0 430.8,204.0 432.7,203.0 433.0,202.0 433.4,201.0 436.1,199.9 436.6,198.9 438.2,197.9 438.6,196.9 438.9,195.9 441.5,194.9 441.5,193.9 441.9,192.9 444.2,191.9 444.6,190.9 444.9,189.9 445.2,188.9 445.9,187.9 445.9,186.8 447.3,185.8 447.9,184.8 448.8,183.8 449.3,182.8 450.9,181.8 451.3,180.8 452.4,179.8 453.5,178.8 453.9,177.8 454.1,176.8 455.0,175.8 455.2,174.7 456.1,173.7 458.2,172.7 458.4,171.7 460.6,170.7 461.6,169.7 461.9,168.7 462.0,167.7 462.5,166.7 463.5,165.7 464.0,164.7 466.5,163.7 466.9,162.6 467.0,161.6 469.0,160.6 470.3,159.6 470.5,158.6 471.9,157.6 471.9,156.6 472.3,155.6 473.9,154.6 474.9,153.6 474.9,152.6 475.8,151.6 475.9,150.5 477.1,149.5 477.2,148.5 480.9,147.5 482.6,146.5 490.0,145.5 491.3,144.5 492.8,143.5 493.5,142.5 494.3,141.5 496.0,140.5 497.9,139.4 498.1,138.4 501.6,137.4 503.1,136.4 503.4,135.4 506.7,134.4 511.5,133.4 512.2,132.4 512.3,131.4 513.8,130.4 515.2,129.4 516.5,128.4 524.4,127.3 524.9,126.3 525.1,125.3 529.5,124.3 530.2,123.3 534.9,122.3 536.2,121.3 538.7,120.3 542.2,119.3 543.0,118.3 544.5,117.3 545.8,116.3 549.4,115.3 586.4,114.2 591.8,113.2 596.2,112.2 597.6,111.2 602.9,110.2 604.8,109.2 622.1,108.2 653.8,107.2 654.4,106.2 659.4,105.2 662.1,104.2 664.8,103.2 670.0,102.1 683.1,101.1 690.6,100.1 711.6,99.1 763.6,98.1 771.2,97.1 773.5,96.1 819.0,95.1 822.0,94.1 834.1,93.1 887.3,92.1 889.9,91.1 941.2,90.0 1035.4,89.0 1068.1,88.0 1074.2,87.0 1155.1,86.0 1236.1,85.0"/>
<line x1="105" y1="752" x2="133" y2="752" stroke="#c74b3a" stroke-width="5"/>
<text x="145" y="758" font-family="Arial, sans-serif" font-size="17">1: no_redirect</text>
<line x1="455" y1="752" x2="483" y2="752" stroke="#e79b37" stroke-width="5"/>
<text x="495" y="758" font-family="Arial, sans-serif" font-size="17">2: redirect_no_kv</text>
<line x1="805" y1="752" x2="833" y2="752" stroke="#865bd6" stroke-width="5"/>
<text x="845" y="758" font-family="Arial, sans-serif" font-size="17">3: redirect_kv_nopp</text>
<line x1="105" y1="777" x2="133" y2="777" stroke="#e0459b" stroke-width="5"/>
<text x="145" y="783" font-family="Arial, sans-serif" font-size="17">4: redirect_kv_pp2</text>
<text x="660.0" y="725" text-anchor="middle" font-family="Arial, sans-serif" font-size="20">TPOT (ms)</text>
<text x="28" y="387.5" transform="rotate(-90 28 387.5)" text-anchor="middle" font-family="Arial, sans-serif" font-size="20">CDF</text>
</svg>