<svg xmlns="http://www.w3.org/2000/svg" width="1320" height="651" viewBox="0 0 1320 651">
<rect width="100%" height="100%" fill="#faf8f4"/>
<text x="660.0" y="42" text-anchor="middle" font-family="Arial, sans-serif" font-size="28" font-weight="700">Hongo peak_4x: TPOT summary</text>
<line x1="270.0" y1="80" x2="270.0" y2="571" stroke="#d9d2c8"/>
<text x="270.0" y="603" text-anchor="middle" font-family="Arial, sans-serif" font-size="16" fill="#5f5b55">0</text>
<line x1="460.0" y1="80" x2="460.0" y2="571" stroke="#d9d2c8"/>
<text x="460.0" y="603" text-anchor="middle" font-family="Arial, sans-serif" font-size="16" fill="#5f5b55">46</text>
<line x1="650.0" y1="80" x2="650.0" y2="571" stroke="#d9d2c8"/>
<text x="650.0" y="603" text-anchor="middle" font-family="Arial, sans-serif" font-size="16" fill="#5f5b55">92</text>
<line x1="840.0" y1="80" x2="840.0" y2="571" stroke="#d9d2c8"/>
<text x="840.0" y="603" text-anchor="middle" font-family="Arial, sans-serif" font-size="16" fill="#5f5b55">138</text>
<line x1="1030.0" y1="80" x2="1030.0" y2="571" stroke="#d9d2c8"/>
<text x="1030.0" y="603" text-anchor="middle" font-family="Arial, sans-serif" font-size="16" fill="#5f5b55">184</text>
<line x1="1220.0" y1="80" x2="1220.0" y2="571" stroke="#d9d2c8"/>
<text x="1220.0" y="603" text-anchor="middle" font-family="Arial, sans-serif" font-size="16" fill="#5f5b55">230</text>
<text x="252" y="119" text-anchor="end" font-family="Arial, sans-serif" font-size="21">1: no_redirect</text>
<rect x="270" y="90" width="263.6" height="42" fill="#c74b3a" opacity="0.82" rx="4"/>
<line x1="415.2" y1="86" x2="415.2" y2="136" stroke="#1f1d1a" stroke-width="4"/>
<text x="545.6" y="118" font-family="Arial, sans-serif" font-size="17">p95 63.7 ms</text>
<text x="252" y="195" text-anchor="end" font-family="Arial, sans-serif" font-size="21">2: redirect_no_kv</text>
<rect x="270" y="166" width="310.5" height="42" fill="#e79b37" opacity="0.82" rx="4"/>
<line x1="424.4" y1="162" x2="424.4" y2="212" stroke="#1f1d1a" stroke-width="4"/>
<text x="592.5" y="194" font-family="Arial, sans-serif" font-size="17">p95 75.0 ms</text>
<text x="252" y="271" text-anchor="end" font-family="Arial, sans-serif" font-size="21">3: redirect_kv_nopp</text>
<rect x="270" y="242" width="281.4" height="42" fill="#865bd6" opacity="0.82" rx="4"/>
<line x1="415.5" y1="238" x2="415.5" y2="288" stroke="#1f1d1a" stroke-width="4"/>
<text x="563.4" y="270" font-family="Arial, sans-serif" font-size="17">p95 68.0 ms</text>
<text x="252" y="347" text-anchor="end" font-family="Arial, sans-serif" font-size="21">4: redirect_kv_pp2</text>
<rect x="270" y="318" width="791.7" height="42" fill="#e0459b" opacity="0.82" rx="4"/>
<line x1="450.0" y1="314" x2="450.0" y2="364" stroke="#1f1d1a" stroke-width="4"/>
<text x="1073.7" y="346" font-family="Arial, sans-serif" font-size="17">p95 191.3 ms</text>
<text x="252" y="423" text-anchor="end" font-family="Arial, sans-serif" font-size="21">5: redirect_kv_pp2_c</text>
<rect x="270" y="394" width="791.7" height="42" fill="#31866f" opacity="0.82" rx="4"/>
<line x1="450.0" y1="390" x2="450.0" y2="440" stroke="#1f1d1a" stroke-width="4"/>
<text x="1073.7" y="422" font-family="Arial, sans-serif" font-size="17">p95 191.3 ms</text>
<text x="252" y="499" text-anchor="end" font-family="Arial, sans-serif" font-size="21">6: redirect_kv_nopp_c</text>
<rect x="270" y="470" width="303.9" height="42" fill="#4f83c2" opacity="0.82" rx="4"/>
<line x1="416.4" y1="466" x2="416.4" y2="516" stroke="#1f1d1a" stroke-width="4"/>
<text x="585.9" y="498" font-family="Arial, sans-serif" font-size="17">p95 73.4 ms</text>
<text x="660.0" y="635" text-anchor="middle" font-family="Arial, sans-serif" font-size="20">TPOT (ms); bar = p95, marker = p50</text>
</svg>